<?xml version="1.0" standalone="no"?>
<!DOCTYPE svg PUBLIC "-//W3C//DTD SVG 20010904//EN"
 "http://www.w3.org/TR/2001/REC-SVG-20010904/DTD/svg10.dtd">
<svg version="1.0" xmlns="http://www.w3.org/2000/svg"
 width="676.000000pt" height="676.000000pt" viewBox="0 0 676.000000 676.000000"
 preserveAspectRatio="xMidYMid meet">
<metadata>
Created by potrace 1.14, written by Peter Selinger 2001-2017
</metadata>
<g transform="translate(0.000000,676.000000) scale(0.100000,-0.100000)"
fill="#000000" stroke="none">
<path d="M3208 4835 c-2 -1 -23 -5 -48 -9 -122 -16 -225 -40 -234 -54 -3 -5 4
-21 15 -38 11 -16 41 -66 66 -112 52 -91 46 -88 133 -65 36 9 316 9 375 0 197
-31 384 -108 565 -235 72 -50 270 -247 270 -269 0 -7 3 -13 8 -13 11 0 122
-187 122 -206 0 -4 -23 24 -52 62 -28 38 -83 101 -122 140 -75 74 -230 194
-253 194 -7 0 -13 4 -13 9 0 19 -291 139 -376 155 -16 2 -38 7 -49 9 -22 5
-79 14 -135 23 -76 11 -334 3 -348 -11 -2 -2 8 -21 22 -44 14 -22 26 -45 26
-51 0 -5 5 -10 10 -10 6 0 10 -4 10 -9 0 -8 243 -432 270 -471 6 -8 13 -23 16
-32 4 -10 10 -18 15 -18 5 0 9 -4 9 -9 0 -5 50 -93 110 -196 61 -103 110 -190
110 -192 0 -2 14 -24 30 -48 17 -24 30 -46 30 -48 0 -2 50 -89 110 -192 61
-103 110 -191 110 -195 0 -5 8 -11 18 -14 9 -2 353 -5 764 -4 l747 0 31 31
c31 32 38 51 20 53 -5 1 -12 3 -15 4 -3 1 -8 3 -12 5 -5 1 -19 6 -33 12 -14 6
-68 27 -120 48 -52 20 -133 52 -180 70 -218 86 -355 139 -357 140 -1 0 -5 27
-8 60 -4 33 -9 63 -11 66 -2 4 -6 25 -9 47 -7 56 -51 205 -84 283 -63 150
-167 314 -275 433 -20 22 -34 47 -32 55 3 9 8 39 12 66 3 28 8 58 10 67 7 43
-160 193 -326 294 -56 33 -133 74 -150 79 -3 0 -25 10 -50 22 -25 11 -70 28
-100 37 -30 10 -62 20 -70 23 -8 3 -26 8 -40 10 -14 2 -38 8 -55 13 -66 20
-177 33 -322 35 -83 2 -153 2 -155 0z"/>
<path d="M2759 4670 c-16 -16 -27 -35 -23 -43 5 -15 -4 -20 -101 -52 -27 -10
-59 -21 -70 -25 -40 -17 -50 -16 -69 2 -26 24 -71 23 -96 -2 -11 -11 -20 -23
-21 -27 0 -5 -2 -17 -4 -27 -2 -11 8 -31 25 -48 23 -23 34 -27 57 -22 15 4 33
11 40 16 7 6 26 0 55 -19 24 -15 59 -35 78 -45 53 -26 73 -45 66 -63 -8 -21
18 -71 43 -85 31 -16 65 -12 90 11 22 21 23 21 69 3 26 -10 52 -18 57 -19 6 0
11 -11 13 -25 2 -22 -5 -29 -50 -53 -29 -14 -91 -47 -138 -71 l-85 -45 -27 26
c-38 36 -119 43 -165 14 -121 -76 -76 -257 67 -267 38 -2 108 28 117 51 6 17
44 20 59 6 5 -5 50 -26 99 -46 50 -20 103 -43 119 -51 16 -8 35 -14 43 -14 10
0 13 -9 11 -27 -2 -22 -13 -31 -60 -50 -52 -20 -59 -21 -85 -8 -40 21 -66 19
-91 -8 -44 -47 -16 -117 48 -122 30 -2 39 -9 65 -53 17 -28 43 -72 58 -97 24
-39 26 -48 15 -63 -15 -20 -25 -20 -143 3 -16 3 -57 10 -90 16 -151 25 -163
29 -169 54 -4 14 -19 31 -35 39 -58 30 -127 -37 -96 -94 15 -27 14 -29 -68
-152 -51 -78 -61 -88 -88 -88 -31 0 -84 -44 -73 -61 6 -11 -27 -24 -76 -32
-43 -7 -77 -14 -155 -32 -33 -7 -77 -16 -99 -19 -21 -4 -42 -8 -46 -11 -4 -3
-25 -7 -46 -11 -22 -3 -56 -9 -77 -14 -34 -7 -41 -5 -68 20 -23 21 -29 33 -24
49 3 11 8 32 11 46 9 54 12 71 18 95 3 14 8 36 10 50 21 134 28 151 63 165 22
9 39 26 48 48 13 31 19 35 77 46 35 7 83 17 108 22 127 25 180 32 180 22 0
-10 50 -40 65 -38 30 3 53 18 63 41 17 35 15 47 -9 79 -19 23 -28 26 -61 23
-37 -3 -42 0 -100 62 -138 146 -130 134 -119 162 7 18 6 33 -3 49 -12 23 -8
31 46 104 33 44 65 88 73 97 7 9 21 28 30 42 14 20 26 26 55 26 41 0 65 19 75
62 6 22 1 33 -23 57 -26 27 -33 29 -62 21 -53 -15 -73 -57 -49 -101 9 -18 -2
-37 -82 -144 -87 -114 -96 -123 -126 -122 -42 1 -73 -27 -73 -68 0 -49 21 -69
73 -70 45 -1 49 -4 140 -101 65 -68 92 -103 86 -110 -5 -7 -8 -18 -7 -25 3
-13 -29 -23 -111 -34 -25 -3 -47 -8 -51 -10 -3 -2 -24 -6 -46 -9 -22 -4 -51
-9 -64 -12 -66 -14 -80 -13 -93 7 -37 51 -129 36 -146 -25 -9 -35 9 -83 35
-93 15 -6 15 -29 -1 -93 -3 -14 -8 -38 -10 -55 -3 -16 -7 -41 -10 -55 -12 -54
-16 -77 -21 -115 -9 -59 -20 -83 -43 -90 -22 -7 -43 -57 -34 -83 12 -34 36
-52 69 -52 36 0 74 31 74 61 0 16 31 27 120 43 14 3 70 14 125 26 55 12 109
23 120 26 11 2 45 9 75 15 89 19 99 19 115 -4 20 -29 82 -28 107 2 20 26 23
63 7 89 -9 15 1 36 57 124 65 101 71 107 103 108 23 0 41 8 57 26 13 14 28 23
33 20 5 -3 26 -8 47 -11 22 -3 62 -10 89 -15 28 -5 63 -12 79 -14 69 -12 122
-20 130 -21 5 0 19 -16 31 -35 l22 -35 -22 -83 c-12 -45 -24 -84 -26 -86 -2
-2 -22 -7 -44 -10 -137 -21 -173 -198 -54 -265 78 -44 172 -11 204 72 13 36
21 44 43 44 15 1 126 4 247 8 464 14 406 17 438 -17 54 -58 136 -21 128 60 -2
25 -41 52 -74 52 -33 0 -67 -24 -67 -48 0 -7 -16 -12 -37 -13 -74 -2 -301 -8
-480 -14 l-181 -5 -22 45 c-12 26 -34 52 -50 60 -26 14 -27 17 -19 52 16 62
17 68 19 68 1 0 4 13 6 30 6 35 8 38 32 40 24 2 72 35 72 50 0 10 32 13 135
14 l135 0 15 -29 c17 -33 49 -45 99 -36 35 7 56 37 56 82 0 30 -41 74 -69 74
-21 0 -27 18 -46 135 -3 17 -9 43 -13 59 -6 23 -3 34 15 52 66 66 -25 165 -98
106 -41 -34 -18 -122 32 -122 20 0 33 -38 49 -137 5 -30 12 -64 15 -74 4 -12
1 -21 -10 -25 -9 -4 -22 -19 -31 -35 l-15 -29 -134 0 c-83 0 -135 4 -135 10 0
20 -41 50 -69 50 -27 0 -36 10 -90 97 -58 94 -59 98 -45 125 8 16 12 32 10 37
-8 12 10 24 73 49 49 20 56 21 71 7 20 -19 69 -19 93 -1 24 18 32 76 13 99
-24 30 -72 38 -99 17 -23 -18 -25 -18 -128 24 -212 88 -220 92 -210 118 4 13
5 32 0 43 -17 43 -9 50 126 120 117 60 138 68 155 57 32 -20 74 -14 99 12 19
20 22 32 17 60 -10 54 -69 74 -120 41 -21 -14 -28 -13 -80 6 -34 13 -55 27
-52 34 7 19 -23 71 -47 82 -31 13 -79 7 -90 -12 -6 -11 -12 -13 -20 -7 -7 6
-34 22 -62 38 -144 79 -157 100 -77 131 26 10 49 18 52 19 3 0 13 4 22 8 9 4
25 9 35 11 10 2 19 4 21 5 1 2 5 3 10 4 4 1 12 5 19 9 7 5 21 -1 33 -13 36
-36 101 -20 118 29 9 25 7 35 -11 62 -30 44 -70 47 -108 9z m77 -47 c4 -27
-24 -39 -44 -19 -8 8 -12 22 -8 31 9 24 48 15 52 -12z m-367 -111 c12 -23 -1
-45 -25 -40 -23 4 -31 37 -12 49 19 13 26 11 37 -9z m341 -187 c12 -15 5 -54
-11 -56 -36 -5 -44 -2 -53 24 -8 22 -7 30 4 37 22 14 46 12 60 -5z m-615 -124
c0 -30 -18 -37 -39 -15 -13 13 -14 19 -5 30 18 22 44 13 44 -15z m873 1 c4
-30 -26 -42 -44 -17 -10 14 -11 22 -2 32 16 20 42 12 46 -15z m-439 -171 c66
-36 58 -139 -13 -173 -88 -43 -185 81 -118 152 35 38 84 45 131 21z m-703
-186 c9 -22 -13 -44 -36 -38 -21 6 -24 12 -14 37 8 20 43 21 50 1z m1192 -107
c15 -15 -3 -47 -25 -44 -22 4 -30 36 -11 47 17 11 22 11 36 -3z m281 -62 c17
-20 2 -48 -23 -44 -24 3 -34 37 -14 49 18 12 24 11 37 -5z m-541 -70 c-4 -29
-44 -34 -51 -7 -3 13 1 24 11 30 23 13 44 2 40 -23z m-640 -84 c4 -26 -22 -39
-43 -22 -10 9 -12 17 -5 30 13 24 44 19 48 -8z m-498 -77 c23 -28 -9 -72 -45
-59 -36 14 -24 74 15 74 10 0 23 -7 30 -15z m800 -61 c11 -12 10 -18 -3 -32
-16 -15 -18 -15 -33 0 -19 18 -12 48 9 48 8 0 20 -7 27 -16z m971 -85 c12 -23
2 -47 -22 -54 -37 -12 -65 35 -38 62 16 16 49 12 60 -8z m-441 -4 c10 -12 10
-18 0 -30 -7 -8 -18 -15 -26 -15 -19 0 -29 41 -13 51 19 12 25 11 39 -6z
m-750 -251 c11 -12 10 -18 -3 -31 -8 -9 -23 -13 -31 -10 -19 8 -21 43 -3 50
20 9 24 8 37 -9z m685 -86 c35 -42 34 -99 -2 -133 -15 -14 -35 -25 -43 -26 -8
0 -23 -2 -32 -4 -28 -5 -81 37 -92 73 -28 99 103 169 169 90z m870 -25 c3 -9
-1 -23 -10 -32 -13 -14 -17 -14 -31 1 -9 9 -14 23 -12 30 8 19 45 20 53 1z
m-2241 -29 c23 -9 20 -31 -5 -45 -17 -9 -23 -8 -30 2 -22 35 -3 58 35 43z"/>
<path d="M1490 2445 c-1 -11 -2 -100 -3 -197 l-2 -177 100 -3 c55 -2 145 -1
200 2 l100 5 3 36 c2 22 -2 40 -9 45 -7 4 -76 7 -155 6 l-142 -1 -1 104 c-1
93 1 105 16 106 10 0 79 2 153 2 l135 2 3 43 c2 29 -1 42 -10 43 -7 1 -97 2
-200 3 -182 1 -188 1 -188 -19z"/>
<path d="M1929 2455 c-1 -5 -2 -94 -2 -197 l-2 -186 30 -4 c62 -7 65 -3 65 78
l0 75 108 -3 107 -3 0 -68 c0 -76 7 -85 59 -79 l34 4 0 197 0 197 -199 0
c-130 0 -199 -4 -200 -11z m302 -87 c2 -10 2 -36 0 -46 0 -5 -47 -8 -103 -8
l-103 1 -3 27 c-2 19 2 27 14 30 34 6 194 3 195 -4z"/>
<path d="M2369 2446 c0 -12 -1 -101 -2 -199 l-2 -177 47 0 47 0 3 133 3 132
21 -20 c52 -51 105 -86 122 -80 9 3 40 26 67 50 28 25 53 45 56 45 3 0 5 -58
4 -130 l-1 -130 48 0 48 0 -2 198 -3 197 -39 1 c-27 0 -47 -7 -70 -25 -17 -14
-37 -30 -44 -36 -7 -5 -23 -20 -34 -32 -26 -28 -48 -29 -69 -5 -9 9 -29 26
-45 37 -16 11 -38 29 -50 40 -14 14 -34 21 -62 21 -36 0 -42 -3 -43 -20z"/>
<path d="M3017 2455 c-2 -5 -3 -93 -3 -195 l1 -184 25 -6 c14 -3 35 -4 48 -2
23 4 23 5 20 153 -3 143 -2 149 17 150 11 0 59 2 108 2 81 2 87 1 88 -18 1
-11 1 -80 1 -152 l1 -133 46 0 46 0 -1 193 c-1 105 -2 194 -3 197 -2 10 -391
5 -394 -5z"/>
<path d="M3459 2461 c-1 -3 -2 -93 -3 -198 l-1 -193 47 0 48 0 0 75 0 74 152
3 153 3 0 113 c0 62 -2 116 -5 120 -6 9 -389 11 -391 3z m297 -94 c6 -3 9 -17
7 -30 -5 -23 -7 -23 -109 -23 l-104 0 0 27 c0 15 4 29 10 31 19 6 185 2 196
-5z"/>
<path d="M3899 2465 c-7 -1 -3 -388 4 -392 7 -4 126 -6 337 -4 l55 1 0 198 -1
197 -197 0 c-108 1 -198 1 -198 0z m301 -100 c2 -21 2 -132 1 -166 l-1 -35
-105 -2 -105 -1 -1 34 c-2 134 0 168 9 174 17 10 202 7 202 -4z"/>
<path d="M4339 2466 c-1 -1 -2 -90 -3 -198 l-2 -198 47 0 47 0 0 58 c0 31 0
65 1 75 1 15 15 17 151 17 113 0 150 3 151 13 4 41 3 227 -1 228 -5 2 -389 6
-391 5z m299 -121 l-3 -30 -102 0 c-102 -1 -108 1 -103 35 3 23 11 25 114 25
l97 0 -3 -30z"/>
<path d="M4779 2465 c-1 0 -3 -89 -4 -197 l-1 -198 47 0 47 0 0 58 c0 101 -11
92 107 92 l105 0 0 -75 c0 -71 1 -75 23 -76 35 -2 62 2 67 11 4 7 5 361 1 380
-1 4 -371 9 -392 5z m301 -121 l0 -30 -105 0 c-69 -1 -105 3 -106 10 -1 6 -2
18 -3 26 -1 19 28 25 131 25 l83 0 0 -31z"/>
<path d="M5219 2460 c-1 -3 -2 -92 -3 -197 l-2 -193 26 -1 c23 0 243 0 335 1
l40 0 0 120 c0 100 -3 120 -15 121 -8 1 -77 1 -152 2 -76 0 -138 3 -139 6 0 3
-2 14 -4 24 -5 28 21 33 165 32 148 -2 149 -1 142 59 l-4 32 -194 0 c-107 -1
-195 -3 -195 -6z m301 -269 l0 -29 -102 0 c-56 -1 -105 1 -108 3 -4 3 -5 16
-2 30 4 25 5 25 108 25 l104 0 0 -29z"/>
<path d="M1209 1803 c-13 -16 -12 -17 4 -4 9 7 17 15 17 17 0 8 -8 3 -21 -13z"/>
<path d="M3616 1807 c3 -10 9 -15 12 -12 3 3 0 11 -7 18 -10 9 -11 8 -5 -6z"/>
<path d="M4207 1809 c7 -7 15 -10 18 -7 3 3 -2 9 -12 12 -14 6 -15 5 -6 -5z"/>
<path d="M4630 1779 c0 -5 5 -7 10 -4 6 3 10 8 10 11 0 2 -4 4 -10 4 -5 0 -10
-5 -10 -11z"/>
<path d="M5195 1780 c3 -5 8 -10 11 -10 2 0 4 5 4 10 0 6 -5 10 -11 10 -5 0
-7 -4 -4 -10z"/>
<path d="M5429 1763 l-24 -28 28 24 c15 14 27 26 27 28 0 8 -8 1 -31 -24z"/>
<path d="M3133 1755 c0 -8 4 -12 9 -9 5 3 6 10 3 15 -9 13 -12 11 -12 -6z"/>
<path d="M1406 1742 c-3 -5 1 -9 9 -9 8 0 12 4 9 9 -3 4 -7 8 -9 8 -2 0 -6 -4
-9 -8z"/>
<path d="M3620 1746 c0 -2 7 -7 16 -10 8 -3 12 -2 9 4 -6 10 -25 14 -25 6z"/>
<path d="M4655 1569 c-4 -6 -5 -12 -2 -15 2 -3 7 2 10 11 7 17 1 20 -8 4z"/>
<path d="M595 1560 c-3 -6 1 -7 9 -4 18 7 21 14 7 14 -6 0 -13 -4 -16 -10z"/>
<path d="M1855 1560 c-3 -6 1 -7 9 -4 18 7 21 14 7 14 -6 0 -13 -4 -16 -10z"/>
<path d="M4165 1560 c-3 -6 1 -7 9 -4 18 7 21 14 7 14 -6 0 -13 -4 -16 -10z"/>
<path d="M1695 1540 c-3 -5 -1 -10 4 -10 6 0 11 5 11 10 0 6 -2 10 -4 10 -3 0
-8 -4 -11 -10z"/>
<path d="M4585 1519 c-4 -6 -5 -12 -2 -15 2 -3 7 2 10 11 7 17 1 20 -8 4z"/>
<path d="M6220 1521 c0 -6 4 -13 10 -16 6 -3 7 1 4 9 -7 18 -14 21 -14 7z"/>
<path d="M1430 1510 c0 -5 5 -10 11 -10 5 0 7 5 4 10 -3 6 -8 10 -11 10 -2 0
-4 -4 -4 -10z"/>
<path d="M1266 1502 c-2 -4 4 -8 14 -8 10 0 16 4 14 8 -3 4 -9 8 -14 8 -5 0
-11 -4 -14 -8z"/>
</g>
</svg>
