<svg width="21" height="20" viewBox="0 0 21 20" fill="none" xmlns="http://www.w3.org/2000/svg">
<g id="Icons 20px">
<path id="Subtract" fill-rule="evenodd" clip-rule="evenodd" d="M1.57921 17.4144L1.5827 17.4074L1.59448 17.3836C1.60496 17.3624 1.62052 17.3308 1.64046 17.29C1.68034 17.2084 1.73763 17.09 1.8065 16.9446C1.9445 16.6532 2.12785 16.2559 2.31057 15.8296C2.49414 15.4012 2.6727 14.9537 2.80404 14.5597C2.94457 14.1381 2.99993 13.8662 2.99993 13.75C2.99993 13.3379 2.89329 12.7607 2.76382 12.0974L2.74366 11.9943C2.62979 11.4127 2.49993 10.7495 2.49993 10.25C2.49993 5.69365 6.19358 2 10.7499 2C15.3063 2 18.9999 5.69365 18.9999 10.25C18.9999 14.8063 15.3063 18.5 10.7499 18.5C9.91843 18.5 9.04839 18.2001 8.36275 17.9568L8.19448 17.8969L8.19443 17.8969L8.19437 17.8969C7.89931 17.7917 7.6368 17.6981 7.39131 17.6252C7.09591 17.5373 6.88962 17.5 6.74993 17.5C6.75361 17.5 6.75155 17.5002 6.74264 17.5013C6.72109 17.5039 6.65944 17.5114 6.54152 17.5319C6.39679 17.557 6.20923 17.5941 5.99038 17.6402C5.55366 17.7321 5.01346 17.8555 4.48421 17.9801C3.9559 18.1044 3.44263 18.2288 3.06114 18.3222C2.87049 18.3689 2.71296 18.4078 2.60317 18.435L2.43248 18.4774C2.14832 18.5485 1.84817 18.4478 1.6649 18.2193C1.48164 17.9908 1.44825 17.6764 1.57921 17.4144ZM6.5 11C7.05228 11 7.5 10.5523 7.5 10C7.5 9.44772 7.05228 9 6.5 9C5.94772 9 5.5 9.44772 5.5 10C5.5 10.5523 5.94772 11 6.5 11ZM11.5 10C11.5 10.5523 11.0523 11 10.5 11C9.94771 11 9.5 10.5523 9.5 10C9.5 9.44772 9.94771 9 10.5 9C11.0523 9 11.5 9.44772 11.5 10ZM14.5 11C15.0523 11 15.5 10.5523 15.5 10C15.5 9.44772 15.0523 9 14.5 9C13.9477 9 13.5 9.44772 13.5 10C13.5 10.5523 13.9477 11 14.5 11Z" fill="white"/>
</g>
</svg>
