<svg width="16" height="16" viewBox="0 0 16 16" fill="none" xmlns="http://www.w3.org/2000/svg">
<g id="icons 16px">
<path id="FileSelected" d="M8.66732 2H5.33398C4.22942 2 3.33398 2.89543 3.33398 4V12C3.33398 13.1046 4.22941 14 5.33398 14H10.6673C11.7719 14 12.6673 13.1046 12.6673 12V6M8.66732 2V4C8.66732 5.10457 9.56275 6 10.6673 6H12.6673M8.66732 2V2C9.09418 2 9.50355 2.16957 9.80539 2.4714L12.1959 4.86193C12.4977 5.16376 12.6673 5.57314 12.6673 6V6M6.00065 10L7.33398 11.3333L10.0007 8.66667" stroke="#1F1F1F" stroke-width="1.5" stroke-linecap="round" stroke-linejoin="round"/>
</g>
</svg>
