<svg width="32" height="32" viewBox="0 0 32 32" fill="none" xmlns="http://www.w3.org/2000/svg">
<g id="Danger">
<path id="Danger_2" fill-rule="evenodd" clip-rule="evenodd" d="M12.7953 7.71019C14.1924 5.19556 17.8088 5.19556 19.2058 7.7102L28.0071 23.5525C29.3649 25.9965 27.5976 28.9999 24.8019 28.9999H7.19928C4.40351 28.9999 2.63629 25.9965 3.99404 23.5525L12.7953 7.71019ZM17.0006 13.3332C17.0006 12.7809 16.5529 12.3332 16.0006 12.3332C15.4483 12.3332 15.0006 12.7809 15.0006 13.3332V18.6665C15.0006 19.2188 15.4483 19.6665 16.0006 19.6665C16.5529 19.6665 17.0006 19.2188 17.0006 18.6665V13.3332ZM16.0006 22.9999C15.4483 22.9999 15.0006 23.4476 15.0006 23.9999C15.0006 24.5522 15.4483 24.9999 16.0006 24.9999H16.0125C16.5648 24.9999 17.0125 24.5522 17.0125 23.9999C17.0125 23.4476 16.5648 22.9999 16.0125 22.9999H16.0006Z" fill="#FFA800"/>
</g>
</svg>
