<svg width="13" height="13" viewBox="0 0 13 13" fill="none" xmlns="http://www.w3.org/2000/svg">
<path fill-rule="evenodd" clip-rule="evenodd" d="M1.19989 1.19989C1.46642 0.933369 1.89854 0.933369 2.16507 1.19989L6.5 5.53482L10.8349 1.19989C11.1015 0.933369 11.5336 0.933369 11.8001 1.19989C12.0666 1.46642 12.0666 1.89854 11.8001 2.16507L7.46518 6.5L11.8001 10.8349C12.0666 11.1015 12.0666 11.5336 11.8001 11.8001C11.5336 12.0666 11.1015 12.0666 10.8349 11.8001L6.5 7.46518L2.16507 11.8001C1.89854 12.0666 1.46642 12.0666 1.19989 11.8001C0.933369 11.5336 0.933369 11.1015 1.19989 10.8349L5.53482 6.5L1.19989 2.16507C0.933369 1.89854 0.933369 1.46642 1.19989 1.19989Z" fill="#DF263C" stroke="#DF263C" stroke-linecap="round" stroke-linejoin="round"/>
</svg>
