<svg width="18" height="18" viewBox="-7 -6 32 32" fill="none" xmlns="http://www.w3.org/2000/svg">
<g id="User">
<g id="User_2">
<path d="M9.50087 2.41663C7.46048 2.41663 5.80642 4.07069 5.80642 6.11107C5.80642 8.15146 7.46048 9.80551 9.50087 9.80551C11.5413 9.80551 13.1953 8.15146 13.1953 6.11107C13.1953 4.07069 11.5413 2.41663 9.50087 2.41663Z" fill="#BFBFBF"/>
<path d="M9.50087 11.75C7.73122 11.75 6.10311 12.018 4.89627 12.4705C4.295 12.696 3.7679 12.9786 3.38063 13.3219C2.99404 13.6646 2.69531 14.1177 2.69531 14.6666C2.69531 15.2155 2.99404 15.6686 3.38063 16.0113C3.7679 16.3547 4.295 16.6373 4.89627 16.8627C6.10311 17.3153 7.73122 17.5833 9.50087 17.5833C11.2705 17.5833 12.8986 17.3153 14.1055 16.8627C14.7067 16.6373 15.2338 16.3547 15.6211 16.0113C16.0077 15.6686 16.3064 15.2155 16.3064 14.6666C16.3064 14.1177 16.0077 13.6646 15.6211 13.3219C15.2338 12.9786 14.7067 12.696 14.1055 12.4705C12.8986 12.018 11.2705 11.75 9.50087 11.75Z" fill="#BFBFBF"/>
</g>
</g>
</svg>
