<svg width="70" height="70" viewBox="0 0 70 70" fill="none" xmlns="http://www.w3.org/2000/svg">
<path fill-rule="evenodd" clip-rule="evenodd" d="M29 55C43.3594 55 55 43.3594 55 29C55 14.6406 43.3594 3 29 3C14.6406 3 3 14.6406 3 29C3 43.3594 14.6406 55 29 55ZM29 51C41.1503 51 51 41.1503 51 29C51 16.8497 41.1503 7 29 7C16.8497 7 7 16.8497 7 29C7 41.1503 16.8497 51 29 51Z" fill="#356AFB"/>
<rect x="43.4258" y="46.2544" width="4" height="29.9834" rx="2" transform="rotate(-45 43.4258 46.2544)" fill="#356AFB"/>
<path fill-rule="evenodd" clip-rule="evenodd" d="M39.4799 20.2769C38.6433 19.5557 37.3804 19.6493 36.6593 20.486L25.3895 33.5607L19.2428 27.4141C18.4618 26.633 17.1954 26.633 16.4144 27.4141C15.6334 28.1951 15.6334 29.4614 16.4144 30.2425L24.0865 37.9146C24.8675 38.6956 26.1339 38.6956 26.9149 37.9146C27.07 37.7595 27.1943 37.5853 27.2878 37.3996C27.414 37.309 27.5316 37.2021 27.6375 37.0793L39.6891 23.0976C40.4102 22.2609 40.3166 20.998 39.4799 20.2769Z" fill="#356AFB"/>
</svg>
