<svg width="70" height="70" viewBox="0 0 70 70" fill="none" xmlns="http://www.w3.org/2000/svg">
<path d="M57.7302 1H45.2703C42.3641 1 40 3.26134 40 6.04067V17.9593C40 20.7387 42.3641 23 45.2703 23H57.7302C60.6359 23 63 20.7387 63 17.9593V6.04067C63.0005 3.26134 60.6364 1 57.7302 1ZM58.9666 17.9593C58.9666 18.611 58.412 19.1415 57.7302 19.1415H45.2703C44.5885 19.1415 44.0344 18.611 44.0344 17.9593V6.04067C44.0344 5.38905 44.5885 4.8585 45.2703 4.8585H57.7302C58.412 4.8585 58.9666 5.38905 58.9666 6.04067V17.9593Z" fill="#356AFB"/>
<path d="M57.7302 1H45.2703C42.3641 1 40 3.26134 40 6.04067V17.9593C40 20.7387 42.3641 23 45.2703 23H57.7302C60.6359 23 63 20.7387 63 17.9593V6.04067C63.0005 3.26134 60.6364 1 57.7302 1ZM58.9666 17.9593C58.9666 18.611 58.412 19.1415 57.7302 19.1415H45.2703C44.5885 19.1415 44.0344 18.611 44.0344 17.9593V6.04067C44.0344 5.38905 44.5885 4.8585 45.2703 4.8585H57.7302C58.412 4.8585 58.9666 5.38905 58.9666 6.04067V17.9593Z" stroke="white"/>
<path d="M48.3684 28.6914C47.4205 28.6914 46.5271 28.9285 45.7427 29.3472C44.732 27.8198 43.0084 26.8123 41.0554 26.8123C40.0468 26.8123 39.0994 27.0811 38.2795 27.5516C37.2534 26.1462 35.6018 25.2326 33.7425 25.2326C33.1571 25.2326 32.5924 25.3228 32.0611 25.4909V23.7177H32.5301C35.376 23.7177 37.6911 21.3826 37.6911 18.5121V6.20511C37.6911 3.33511 35.376 1 32.5301 1H20.3288C17.4834 1 15.1684 3.33511 15.1684 6.20511V18.5126C15.1684 21.3826 17.4834 23.7177 20.3288 23.7177H20.7984V36.0589C20.4929 35.7502 20.1498 35.4747 19.7733 35.2386C18.56 34.4786 17.1373 34.214 15.7424 34.4848C14.242 34.5455 12.896 35.206 12.0216 36.3177C11.103 37.4856 10.7841 39.0513 11.1457 40.6139L13.7416 51.8184C15.2219 61.1667 22.4515 68.1606 22.7596 68.4547C23.1263 68.8049 23.6124 69 24.1175 69H46.3321C46.9972 69 47.617 68.6623 47.9827 68.102C51.9169 62.0652 53.9974 55.0562 53.9979 47.8325L54 34.3717V34.3712C54 31.2392 51.4735 28.6914 48.3684 28.6914ZM24.9471 65.0156C23.3552 63.3077 18.6644 57.7929 17.6321 51.1284C17.6244 51.0791 17.6151 51.0304 17.6038 50.9826L14.9919 39.7076C14.905 39.3309 14.9487 39.0062 15.1159 38.794C15.2825 38.5818 15.5685 38.4708 15.9502 38.4339C16.0352 38.4259 16.0982 38.4169 16.1575 38.4085C16.232 38.3979 16.3006 38.3881 16.3997 38.382C16.8477 38.3546 17.307 38.3841 17.6887 38.6233C18.0703 38.8625 18.3362 39.237 18.4386 39.678L20.6914 49.4034C20.8797 50.2153 21.5493 50.8234 22.3692 50.9271L22.5276 50.9468C23.0898 51.0179 23.6551 50.842 24.0799 50.4638C24.5048 50.0856 24.7481 49.5414 24.7481 48.9702V17.3084C24.7481 16.373 25.5021 15.6125 26.4295 15.6125C27.3563 15.6125 28.1109 16.373 28.1109 17.3084V35.9899C28.1109 37.0897 28.995 37.9821 30.086 37.9821C31.1769 37.9821 32.0611 37.0897 32.0611 35.9899V30.9129C32.0611 29.9775 32.8151 29.2169 33.7425 29.2169C34.6693 29.2169 35.4239 29.9775 35.4239 30.9129V36.2166C35.4239 37.317 36.308 38.2088 37.3989 38.2088C38.4899 38.2088 39.374 37.317 39.374 36.2166V32.4926C39.374 31.5578 40.1286 30.7967 41.0554 30.7967C41.9828 30.7967 42.7368 31.5578 42.7368 32.4926V37.608C42.7368 38.7079 43.621 39.6002 44.7119 39.6002C45.8029 39.6002 46.687 38.7079 46.687 37.608V34.3717C46.687 33.4363 47.4416 32.6753 48.3684 32.6753C49.2958 32.6753 50.0498 33.4363 50.0498 34.3712L50.0478 47.832C50.0472 53.9211 48.39 59.8391 45.2463 65.0156H24.9471ZM19.1185 18.5126V6.20511C19.1185 5.53223 19.6617 4.98438 20.3288 4.98438H32.5301C33.1978 4.98438 33.7409 5.53223 33.7409 6.20511V18.5126C33.7409 19.1855 33.1978 19.7333 32.5301 19.7333H32.0611V17.3079C32.0611 14.1759 29.5346 11.6276 26.4295 11.6276C23.3244 11.6276 20.7979 14.1759 20.7979 17.3079V19.7333H20.3288C19.6617 19.7333 19.1185 19.1855 19.1185 18.5126Z" fill="#356AFB"/>
<path d="M48.3684 28.6914C47.4205 28.6914 46.5271 28.9285 45.7427 29.3472C44.732 27.8198 43.0084 26.8123 41.0554 26.8123C40.0468 26.8123 39.0994 27.0811 38.2795 27.5516C37.2534 26.1462 35.6018 25.2326 33.7425 25.2326C33.1571 25.2326 32.5924 25.3228 32.0611 25.4909V23.7177H32.5301C35.376 23.7177 37.6911 21.3826 37.6911 18.5121V6.20511C37.6911 3.33511 35.376 1 32.5301 1H20.3288C17.4834 1 15.1684 3.33511 15.1684 6.20511V18.5126C15.1684 21.3826 17.4834 23.7177 20.3288 23.7177H20.7984V36.0589C20.4929 35.7502 20.1498 35.4747 19.7733 35.2386C18.56 34.4786 17.1373 34.214 15.7424 34.4848C14.242 34.5455 12.896 35.206 12.0216 36.3177C11.103 37.4856 10.7841 39.0513 11.1457 40.6139L13.7416 51.8184C15.2219 61.1667 22.4515 68.1606 22.7596 68.4547C23.1263 68.8049 23.6124 69 24.1175 69H46.3321C46.9972 69 47.617 68.6623 47.9827 68.102C51.9169 62.0652 53.9974 55.0562 53.9979 47.8325L54 34.3717V34.3712C54 31.2392 51.4735 28.6914 48.3684 28.6914ZM24.9471 65.0156C23.3552 63.3077 18.6644 57.7929 17.6321 51.1284C17.6244 51.0791 17.6151 51.0304 17.6038 50.9826L14.9919 39.7076C14.905 39.3309 14.9487 39.0062 15.1159 38.794C15.2825 38.5818 15.5685 38.4708 15.9502 38.4339C16.0352 38.4259 16.0982 38.4169 16.1575 38.4085C16.232 38.3979 16.3006 38.3881 16.3997 38.382C16.8477 38.3546 17.307 38.3841 17.6887 38.6233C18.0703 38.8625 18.3362 39.237 18.4386 39.678L20.6914 49.4034C20.8797 50.2153 21.5493 50.8234 22.3692 50.9271L22.5276 50.9468C23.0898 51.0179 23.6551 50.842 24.0799 50.4638C24.5048 50.0856 24.7481 49.5414 24.7481 48.9702V17.3084C24.7481 16.373 25.5021 15.6125 26.4295 15.6125C27.3563 15.6125 28.1109 16.373 28.1109 17.3084V35.9899C28.1109 37.0897 28.995 37.9821 30.086 37.9821C31.1769 37.9821 32.0611 37.0897 32.0611 35.9899V30.9129C32.0611 29.9775 32.8151 29.2169 33.7425 29.2169C34.6693 29.2169 35.4239 29.9775 35.4239 30.9129V36.2166C35.4239 37.317 36.308 38.2088 37.3989 38.2088C38.4899 38.2088 39.374 37.317 39.374 36.2166V32.4926C39.374 31.5578 40.1286 30.7967 41.0554 30.7967C41.9828 30.7967 42.7368 31.5578 42.7368 32.4926V37.608C42.7368 38.7079 43.621 39.6002 44.7119 39.6002C45.8029 39.6002 46.687 38.7079 46.687 37.608V34.3717C46.687 33.4363 47.4416 32.6753 48.3684 32.6753C49.2958 32.6753 50.0498 33.4363 50.0498 34.3712L50.0478 47.832C50.0472 53.9211 48.39 59.8391 45.2463 65.0156H24.9471ZM19.1185 18.5126V6.20511C19.1185 5.53223 19.6617 4.98438 20.3288 4.98438H32.5301C33.1978 4.98438 33.7409 5.53223 33.7409 6.20511V18.5126C33.7409 19.1855 33.1978 19.7333 32.5301 19.7333H32.0611V17.3079C32.0611 14.1759 29.5346 11.6276 26.4295 11.6276C23.3244 11.6276 20.7979 14.1759 20.7979 17.3079V19.7333H20.3288C19.6617 19.7333 19.1185 19.1855 19.1185 18.5126Z" stroke="white"/>
</svg>
