<svg width="70" height="70" viewBox="0 0 70 70" fill="none" xmlns="http://www.w3.org/2000/svg">
<path d="M37.1965 70H32.8033C29.2502 70 26.3592 67.1092 26.3592 63.556V62.0698C24.8486 61.5872 23.381 60.9779 21.971 60.2483L20.9177 61.3015C18.3667 63.8557 14.2803 63.7808 11.8033 61.3006L8.69832 58.1957C6.21701 55.7171 6.14564 51.6321 8.69914 49.0813L9.7516 48.0289C9.02193 46.6189 8.41285 45.1515 7.9301 43.6406H6.44396C2.89092 43.6406 0 40.7498 0 37.1967V32.8033C0 29.2502 2.89092 26.3594 6.4441 26.3594H7.93023C8.41299 24.8486 9.02207 23.3811 9.75174 21.9711L8.69846 20.918C6.14646 18.3687 6.21688 14.2833 8.69928 11.8036L11.8046 8.69846C14.2872 6.21236 18.3727 6.15029 20.9188 8.69928L21.9711 9.7516C23.3811 9.02207 24.8488 8.41285 26.3594 7.9301V6.44396C26.3594 2.89078 29.2502 0 32.8035 0H37.1967C40.7498 0 43.6406 2.89078 43.6406 6.44396V7.93023C45.1512 8.41285 46.6189 9.02207 48.0289 9.75174L49.0822 8.69846C51.6332 6.14428 55.7196 6.2192 58.1965 8.69941L61.3015 11.8043C63.7829 14.2829 63.8542 18.3679 61.3007 20.9187L60.2483 21.9711C60.9779 23.3811 61.587 24.8485 62.0698 26.3594H63.5559C67.1091 26.3594 70 29.2502 70 32.8033V37.1967C70 40.7498 67.1091 43.6406 63.5559 43.6406H62.0698C61.587 45.1514 60.9779 46.6189 60.2483 48.0289L61.3015 49.0822C63.8535 51.6314 63.7831 55.7169 61.3007 58.1965L58.1954 61.3017C55.7128 63.7878 51.6273 63.8498 49.0812 61.3009L48.0289 60.2485C46.6189 60.9781 45.1512 61.5873 43.6406 62.07V63.5563C43.6406 67.1092 40.7498 70 37.1965 70ZM22.6566 55.9412C24.6154 57.0996 26.7236 57.9748 28.9226 58.5423C29.8282 58.7759 30.4609 59.5927 30.4609 60.528V63.556C30.4609 64.8476 31.5119 65.8984 32.8035 65.8984H37.1967C38.4882 65.8984 39.5392 64.8476 39.5392 63.556V60.528C39.5392 59.5927 40.1719 58.7759 41.0776 58.5423C43.2765 57.9748 45.3847 57.0996 47.3435 55.9412C48.1495 55.4646 49.1755 55.5942 49.8377 56.2563L51.9825 58.4013C52.9073 59.3272 54.3923 59.3057 55.2944 58.4023L58.4016 55.2952C59.3015 54.3964 59.3316 52.9111 58.4024 51.9832L56.2566 49.8374C55.5946 49.1754 55.465 48.1492 55.9415 47.3434C57.0999 45.3847 57.9749 43.2765 58.5424 41.0774C58.7762 40.1718 59.593 39.5392 60.5281 39.5392H63.556C64.8476 39.5392 65.8986 38.4884 65.8986 37.1968V32.8035C65.8986 31.5119 64.8476 30.4611 63.556 30.4611H60.5281C59.5928 30.4611 58.7762 29.8283 58.5424 28.9229C57.9749 26.7237 57.0998 24.6155 55.9415 22.6569C55.465 21.8511 55.5946 20.8249 56.2566 20.1629L58.4016 18.0179C59.3288 17.0918 59.3046 15.607 58.4024 14.7059L55.2955 11.5989C54.3949 10.6971 52.9096 10.6708 51.9835 11.5981L49.8378 13.7439C49.1758 14.4061 48.1493 14.5357 47.3437 14.0591C45.3849 12.9006 43.2767 12.0255 41.0777 11.458C40.1721 11.2243 39.5393 10.4076 39.5393 9.47228V6.44396C39.5393 5.15238 38.4884 4.10156 37.1968 4.10156H32.8036C31.512 4.10156 30.4611 5.15238 30.4611 6.44396V9.47201C30.4611 10.4073 29.8283 11.2241 28.9227 11.4577C26.7237 12.0252 24.6155 12.9004 22.6568 14.0588C21.8507 14.5353 20.8246 14.4056 20.1626 13.7437L18.0178 11.5987C17.093 10.6728 15.6078 10.6943 14.7059 11.5977L11.5987 14.7048C10.6988 15.6036 10.6687 17.0887 11.5979 18.0168L13.7437 20.1626C14.4056 20.8246 14.5353 21.8508 14.0588 22.6566C12.9004 24.6153 12.0254 26.7235 11.4579 28.9226C11.2241 29.8282 10.4073 30.4608 9.47215 30.4608H6.4441C5.15252 30.4609 4.10156 31.5118 4.10156 32.8033V37.1967C4.10156 38.4882 5.15252 39.5391 6.4441 39.5391H9.47201C10.4073 39.5391 11.2239 40.1718 11.4577 41.0773C12.0252 43.2764 12.9004 45.3846 14.0587 47.3432C14.5351 48.1491 14.4055 49.1753 13.7435 49.8373L11.5985 51.9822C10.6713 52.9084 10.6955 54.3931 11.5977 55.2943L14.7046 58.4012C15.6052 59.303 17.0905 59.3294 18.0167 58.402L20.1623 56.2562C20.6501 55.7685 21.665 55.3547 22.6566 55.9412Z" fill="#356AFB"/>
<path d="M35 50C26.7289 50 20 43.271 20 35C20 26.729 26.7289 20 35 20C43.2711 20 50 26.729 50 35C50 43.271 43.2711 50 35 50ZM35 24.0395C28.9562 24.0395 24.0395 28.9564 24.0395 35C24.0395 41.0436 28.9564 45.9605 35 45.9605C41.0436 45.9605 45.9605 41.0436 45.9605 35C45.9605 28.9564 41.0438 24.0395 35 24.0395Z" fill="#356AFB"/>
<path d="M35 50C26.7289 50 20 43.271 20 35C20 26.729 26.7289 20 35 20C43.2711 20 50 26.729 50 35C50 43.271 43.2711 50 35 50ZM35 24.0395C28.9562 24.0395 24.0395 28.9564 24.0395 35C24.0395 41.0436 28.9564 45.9605 35 45.9605C41.0436 45.9605 45.9605 41.0436 45.9605 35C45.9605 28.9564 41.0438 24.0395 35 24.0395Z" stroke="white"/>
</svg>
