<svg width="82" height="100" viewBox="0 0 82 100" fill="none" xmlns="http://www.w3.org/2000/svg">
<mask id="path-1-outside-1_157:3207" maskUnits="userSpaceOnUse" x="-0.185059" y="-1" width="82" height="102" fill="black">
<rect fill="white" x="-0.185059" y="-1" width="82" height="102"/>
<path d="M51.6446 87.8907C50.8356 87.8907 50.1798 88.5466 50.1798 89.3556C50.1798 90.1645 50.8356 90.8204 51.6446 90.8204C52.4536 90.8204 53.1094 90.1645 53.1094 89.3556C53.1094 88.5466 52.4536 87.8907 51.6446 87.8907ZM76.7544 57.2033C73.6367 54.0838 69.3795 52.5047 65.0874 52.8051C65.071 52.416 64.3413 44.2314 64.2989 43.8101C65.7508 41.3002 65.1135 38.0123 62.8798 36.1717C61.4396 34.985 59.6005 34.5579 57.8738 34.8444C57.8615 33.0557 57.0582 31.3741 55.6637 30.2257C54.2231 29.0392 52.384 28.6121 50.6571 28.8988C50.6448 27.1115 49.8407 25.4301 48.4456 24.2809C47.0058 23.0936 45.1671 22.6658 43.4404 22.9522C43.4277 21.1639 42.6238 19.4825 41.2283 18.3331C38.6289 16.1927 34.731 16.5202 32.5392 19.0643L31.0958 20.7395L28.1652 17.8089C28.7724 14.579 28.2762 11.1838 26.7647 8.23831C26.3951 7.5184 25.5129 7.23442 24.7924 7.60394C24.0727 7.97327 23.7887 8.85627 24.1581 9.57599C25.3842 11.9652 25.7805 14.7203 25.2733 17.3341C25.0981 18.2395 25.3828 19.1696 26.0348 19.8219L29.1781 22.9651C29.1781 22.9651 27.3551 25.1861 27.1285 25.6473C25.2594 25.1213 23.3001 25.358 21.6561 26.2451L20.6341 25.2228C19.9827 24.5715 19.0515 24.2877 18.1443 24.4631C14.2262 25.2209 10.1793 23.9654 7.31785 21.1038C4.97648 18.7622 3.71536 15.6839 3.74017 12.474L10.8879 19.6217C12.3615 21.092 14.742 21.1065 16.1949 19.6538L20.4647 15.3835C21.9184 13.9453 21.871 11.4996 20.431 10.0744L13.2859 2.9294C13.3086 2.9294 13.3316 2.9292 13.3545 2.9292C15.7629 2.9292 18.1288 3.65693 20.1538 5.04167C20.8216 5.49811 21.7333 5.32741 22.1897 4.65926C22.6465 3.99149 22.4753 3.07998 21.8075 2.62335C18.7181 0.511072 14.9879 -0.369776 11.3006 0.142131C10.4782 0.256583 9.80356 0.817122 9.54009 1.6052C9.2733 2.40323 9.47935 3.26943 10.0758 3.86317L18.3589 12.1463C18.6669 12.4664 18.7634 12.9308 18.3941 13.3111L14.1228 17.5825C13.8111 17.8942 13.2883 17.8786 12.9582 17.5493L4.67512 9.26623C4.07708 8.66838 3.21049 8.46389 2.41441 8.73088C1.62789 8.99475 1.06814 9.66915 0.953881 10.4908C0.312483 15.1044 1.91695 19.8462 5.24601 23.1754C8.7778 26.707 13.7734 28.2658 18.622 27.3543L19.4069 28.139C19.1001 28.5212 12.8623 37.8145 12.567 38.2524C10.2739 41.6543 10.3883 46.1478 12.8516 49.4338L17.9595 56.2496C18.448 56.9011 19.3681 57.0246 20.0103 56.5431C20.6575 56.058 20.789 55.1398 20.304 54.4924L15.1959 47.6764C13.4799 45.3874 13.3998 42.2582 14.9965 39.8892L21.5141 30.2152C22.6848 28.4769 25.0313 27.8242 26.9686 28.6955L40.1205 34.6719C41.6885 35.3846 42.4031 37.1893 41.7475 38.7799C41.0832 40.3918 39.1795 41.1802 37.5723 40.5017C37.477 40.4615 32.9044 38.5344 32.8152 38.5041C30.5625 37.7391 28.0615 38.4631 26.5922 40.3051L24.9496 42.3617C24.4448 42.9939 24.5479 43.9156 25.1801 44.4204C25.8119 44.9253 26.7338 44.8218 27.2389 44.19L28.882 42.1328C29.9593 40.7781 31.64 40.9996 33.0388 41.7726L53.8354 62.5694C53.1502 66.211 53.8594 69.9351 55.7519 73.0611V80.5416C55.3545 80.4746 54.9469 80.4379 54.5307 80.4379H32.0294C31.6861 80.4379 31.3488 80.4635 31.0177 80.5094V72.0275C31.0177 69.9088 30.3418 67.8869 29.0631 66.1803L24.3631 59.9089C23.878 59.2616 22.9596 59.1298 22.3124 59.6153C21.6651 60.1005 21.5337 61.0187 22.0186 61.6659L26.7186 67.9373C27.6145 69.133 28.0881 70.5472 28.0881 72.0275V81.5936C26.0559 82.8967 24.7053 85.1738 24.7053 87.762V98.5351C24.7053 99.3441 25.361 100 26.1701 100C26.9793 100 27.635 99.3441 27.635 98.5351V87.762C27.635 85.3388 29.6064 83.3676 32.0294 83.3676H54.5307C56.9537 83.3676 58.9252 85.3388 58.9252 87.762V98.5351C58.9252 99.3441 59.5808 100 60.39 100C61.1991 100 61.8548 99.3441 61.8548 98.5351V87.762C61.8548 85.2636 60.5966 83.0547 58.6816 81.7322V76.5686C61.4517 79.0188 65.0376 80.3748 68.6871 80.3748C69.3586 80.3748 70.0332 80.3289 70.7041 80.2356C71.5248 80.1188 72.1978 79.5577 72.4603 78.7713C72.7259 77.9753 72.5207 77.11 71.9242 76.5132L63.6399 68.2289C63.3392 67.917 63.2401 67.4482 63.6061 67.067L67.8758 62.795C68.1879 62.4839 68.7113 62.4989 69.0418 62.829L77.3253 71.1123C77.9229 71.7097 78.7889 71.9146 79.586 71.6474C80.3723 71.3835 80.9321 70.7091 81.0463 69.8875C81.6881 65.2721 80.0835 60.5302 76.7544 57.2033ZM56.4092 38.8141C57.5771 37.4582 59.6466 37.3039 61.0171 38.4328C62.3466 39.5279 62.544 41.542 61.407 42.8474L56.8463 48.1401C55.6857 49.4874 53.6186 49.6581 52.2383 48.5214C50.9026 47.4212 50.7128 45.4126 51.8485 44.1068L56.4092 38.8141ZM62.0603 51.7061L59.6865 49.3323L61.6468 47.0573L62.0603 51.7061ZM49.1917 32.8692C50.353 31.5216 52.4206 31.3501 53.8012 32.487C55.1322 33.5833 55.3238 35.5983 54.1891 36.902L49.6286 42.1949C48.4677 43.5421 46.4013 43.7128 45.0224 42.5761C44.4726 42.1222 44.1066 41.5207 43.9568 40.8515C44.5287 39.9545 44.8707 38.8637 44.916 37.8295L49.1917 32.8692ZM29.8382 26.782C29.94 26.6013 34.7585 20.9768 34.7585 20.9768C35.919 19.6298 37.986 19.4581 39.3658 20.5946C40.6965 21.6907 40.8916 23.7045 39.7557 25.0096L35.8679 29.5218L29.8382 26.782ZM41.3326 32.005L38.6469 30.7845L41.975 26.9218C43.1359 25.5748 45.2025 25.4039 46.5824 26.5416C47.9146 27.6402 48.1079 29.6521 46.9726 30.9564L44.0242 34.377C43.4076 33.3712 42.4924 32.5321 41.3326 32.005ZM71.1127 60.7563C69.6402 59.2872 67.2602 59.271 65.8055 60.7228L61.5359 64.9948C60.0788 66.4313 60.1146 68.8641 61.5696 70.3017L68.7139 77.446H68.6807C65.5046 77.446 62.3804 76.1671 60.0849 73.873C57.2226 71.0089 55.9674 66.9611 56.7273 63.0444C56.9031 62.1354 56.6174 61.2042 55.9658 60.5565L39.0813 43.672C39.9942 43.631 40.8641 43.3902 41.6424 42.9824C42.0123 43.682 42.5224 44.3109 43.1584 44.8359C44.5953 46.0222 46.4083 46.4562 48.1659 46.1644C48.1784 47.9544 48.9792 49.6313 50.376 50.7823C52.4225 52.4684 55.3016 52.6459 57.539 51.3278L61.3698 55.1584C62.0165 55.8023 62.9583 56.0865 63.8503 55.9156C67.7711 55.1648 71.816 56.4095 74.6831 59.2745C76.9856 61.5755 78.2651 64.7116 78.2563 67.8996L71.1127 60.7563Z"/>
</mask>
<path d="M51.6446 87.8907C50.8356 87.8907 50.1798 88.5466 50.1798 89.3556C50.1798 90.1645 50.8356 90.8204 51.6446 90.8204C52.4536 90.8204 53.1094 90.1645 53.1094 89.3556C53.1094 88.5466 52.4536 87.8907 51.6446 87.8907ZM76.7544 57.2033C73.6367 54.0838 69.3795 52.5047 65.0874 52.8051C65.071 52.416 64.3413 44.2314 64.2989 43.8101C65.7508 41.3002 65.1135 38.0123 62.8798 36.1717C61.4396 34.985 59.6005 34.5579 57.8738 34.8444C57.8615 33.0557 57.0582 31.3741 55.6637 30.2257C54.2231 29.0392 52.384 28.6121 50.6571 28.8988C50.6448 27.1115 49.8407 25.4301 48.4456 24.2809C47.0058 23.0936 45.1671 22.6658 43.4404 22.9522C43.4277 21.1639 42.6238 19.4825 41.2283 18.3331C38.6289 16.1927 34.731 16.5202 32.5392 19.0643L31.0958 20.7395L28.1652 17.8089C28.7724 14.579 28.2762 11.1838 26.7647 8.23831C26.3951 7.5184 25.5129 7.23442 24.7924 7.60394C24.0727 7.97327 23.7887 8.85627 24.1581 9.57599C25.3842 11.9652 25.7805 14.7203 25.2733 17.3341C25.0981 18.2395 25.3828 19.1696 26.0348 19.8219L29.1781 22.9651C29.1781 22.9651 27.3551 25.1861 27.1285 25.6473C25.2594 25.1213 23.3001 25.358 21.6561 26.2451L20.6341 25.2228C19.9827 24.5715 19.0515 24.2877 18.1443 24.4631C14.2262 25.2209 10.1793 23.9654 7.31785 21.1038C4.97648 18.7622 3.71536 15.6839 3.74017 12.474L10.8879 19.6217C12.3615 21.092 14.742 21.1065 16.1949 19.6538L20.4647 15.3835C21.9184 13.9453 21.871 11.4996 20.431 10.0744L13.2859 2.9294C13.3086 2.9294 13.3316 2.9292 13.3545 2.9292C15.7629 2.9292 18.1288 3.65693 20.1538 5.04167C20.8216 5.49811 21.7333 5.32741 22.1897 4.65926C22.6465 3.99149 22.4753 3.07998 21.8075 2.62335C18.7181 0.511072 14.9879 -0.369776 11.3006 0.142131C10.4782 0.256583 9.80356 0.817122 9.54009 1.6052C9.2733 2.40323 9.47935 3.26943 10.0758 3.86317L18.3589 12.1463C18.6669 12.4664 18.7634 12.9308 18.3941 13.3111L14.1228 17.5825C13.8111 17.8942 13.2883 17.8786 12.9582 17.5493L4.67512 9.26623C4.07708 8.66838 3.21049 8.46389 2.41441 8.73088C1.62789 8.99475 1.06814 9.66915 0.953881 10.4908C0.312483 15.1044 1.91695 19.8462 5.24601 23.1754C8.7778 26.707 13.7734 28.2658 18.622 27.3543L19.4069 28.139C19.1001 28.5212 12.8623 37.8145 12.567 38.2524C10.2739 41.6543 10.3883 46.1478 12.8516 49.4338L17.9595 56.2496C18.448 56.9011 19.3681 57.0246 20.0103 56.5431C20.6575 56.058 20.789 55.1398 20.304 54.4924L15.1959 47.6764C13.4799 45.3874 13.3998 42.2582 14.9965 39.8892L21.5141 30.2152C22.6848 28.4769 25.0313 27.8242 26.9686 28.6955L40.1205 34.6719C41.6885 35.3846 42.4031 37.1893 41.7475 38.7799C41.0832 40.3918 39.1795 41.1802 37.5723 40.5017C37.477 40.4615 32.9044 38.5344 32.8152 38.5041C30.5625 37.7391 28.0615 38.4631 26.5922 40.3051L24.9496 42.3617C24.4448 42.9939 24.5479 43.9156 25.1801 44.4204C25.8119 44.9253 26.7338 44.8218 27.2389 44.19L28.882 42.1328C29.9593 40.7781 31.64 40.9996 33.0388 41.7726L53.8354 62.5694C53.1502 66.211 53.8594 69.9351 55.7519 73.0611V80.5416C55.3545 80.4746 54.9469 80.4379 54.5307 80.4379H32.0294C31.6861 80.4379 31.3488 80.4635 31.0177 80.5094V72.0275C31.0177 69.9088 30.3418 67.8869 29.0631 66.1803L24.3631 59.9089C23.878 59.2616 22.9596 59.1298 22.3124 59.6153C21.6651 60.1005 21.5337 61.0187 22.0186 61.6659L26.7186 67.9373C27.6145 69.133 28.0881 70.5472 28.0881 72.0275V81.5936C26.0559 82.8967 24.7053 85.1738 24.7053 87.762V98.5351C24.7053 99.3441 25.361 100 26.1701 100C26.9793 100 27.635 99.3441 27.635 98.5351V87.762C27.635 85.3388 29.6064 83.3676 32.0294 83.3676H54.5307C56.9537 83.3676 58.9252 85.3388 58.9252 87.762V98.5351C58.9252 99.3441 59.5808 100 60.39 100C61.1991 100 61.8548 99.3441 61.8548 98.5351V87.762C61.8548 85.2636 60.5966 83.0547 58.6816 81.7322V76.5686C61.4517 79.0188 65.0376 80.3748 68.6871 80.3748C69.3586 80.3748 70.0332 80.3289 70.7041 80.2356C71.5248 80.1188 72.1978 79.5577 72.4603 78.7713C72.7259 77.9753 72.5207 77.11 71.9242 76.5132L63.6399 68.2289C63.3392 67.917 63.2401 67.4482 63.6061 67.067L67.8758 62.795C68.1879 62.4839 68.7113 62.4989 69.0418 62.829L77.3253 71.1123C77.9229 71.7097 78.7889 71.9146 79.586 71.6474C80.3723 71.3835 80.9321 70.7091 81.0463 69.8875C81.6881 65.2721 80.0835 60.5302 76.7544 57.2033ZM56.4092 38.8141C57.5771 37.4582 59.6466 37.3039 61.0171 38.4328C62.3466 39.5279 62.544 41.542 61.407 42.8474L56.8463 48.1401C55.6857 49.4874 53.6186 49.6581 52.2383 48.5214C50.9026 47.4212 50.7128 45.4126 51.8485 44.1068L56.4092 38.8141ZM62.0603 51.7061L59.6865 49.3323L61.6468 47.0573L62.0603 51.7061ZM49.1917 32.8692C50.353 31.5216 52.4206 31.3501 53.8012 32.487C55.1322 33.5833 55.3238 35.5983 54.1891 36.902L49.6286 42.1949C48.4677 43.5421 46.4013 43.7128 45.0224 42.5761C44.4726 42.1222 44.1066 41.5207 43.9568 40.8515C44.5287 39.9545 44.8707 38.8637 44.916 37.8295L49.1917 32.8692ZM29.8382 26.782C29.94 26.6013 34.7585 20.9768 34.7585 20.9768C35.919 19.6298 37.986 19.4581 39.3658 20.5946C40.6965 21.6907 40.8916 23.7045 39.7557 25.0096L35.8679 29.5218L29.8382 26.782ZM41.3326 32.005L38.6469 30.7845L41.975 26.9218C43.1359 25.5748 45.2025 25.4039 46.5824 26.5416C47.9146 27.6402 48.1079 29.6521 46.9726 30.9564L44.0242 34.377C43.4076 33.3712 42.4924 32.5321 41.3326 32.005ZM71.1127 60.7563C69.6402 59.2872 67.2602 59.271 65.8055 60.7228L61.5359 64.9948C60.0788 66.4313 60.1146 68.8641 61.5696 70.3017L68.7139 77.446H68.6807C65.5046 77.446 62.3804 76.1671 60.0849 73.873C57.2226 71.0089 55.9674 66.9611 56.7273 63.0444C56.9031 62.1354 56.6174 61.2042 55.9658 60.5565L39.0813 43.672C39.9942 43.631 40.8641 43.3902 41.6424 42.9824C42.0123 43.682 42.5224 44.3109 43.1584 44.8359C44.5953 46.0222 46.4083 46.4562 48.1659 46.1644C48.1784 47.9544 48.9792 49.6313 50.376 50.7823C52.4225 52.4684 55.3016 52.6459 57.539 51.3278L61.3698 55.1584C62.0165 55.8023 62.9583 56.0865 63.8503 55.9156C67.7711 55.1648 71.816 56.4095 74.6831 59.2745C76.9856 61.5755 78.2651 64.7116 78.2563 67.8996L71.1127 60.7563Z" fill="#356AFB"/>
<path d="M51.6446 87.8907C50.8356 87.8907 50.1798 88.5466 50.1798 89.3556C50.1798 90.1645 50.8356 90.8204 51.6446 90.8204C52.4536 90.8204 53.1094 90.1645 53.1094 89.3556C53.1094 88.5466 52.4536 87.8907 51.6446 87.8907ZM76.7544 57.2033C73.6367 54.0838 69.3795 52.5047 65.0874 52.8051C65.071 52.416 64.3413 44.2314 64.2989 43.8101C65.7508 41.3002 65.1135 38.0123 62.8798 36.1717C61.4396 34.985 59.6005 34.5579 57.8738 34.8444C57.8615 33.0557 57.0582 31.3741 55.6637 30.2257C54.2231 29.0392 52.384 28.6121 50.6571 28.8988C50.6448 27.1115 49.8407 25.4301 48.4456 24.2809C47.0058 23.0936 45.1671 22.6658 43.4404 22.9522C43.4277 21.1639 42.6238 19.4825 41.2283 18.3331C38.6289 16.1927 34.731 16.5202 32.5392 19.0643L31.0958 20.7395L28.1652 17.8089C28.7724 14.579 28.2762 11.1838 26.7647 8.23831C26.3951 7.5184 25.5129 7.23442 24.7924 7.60394C24.0727 7.97327 23.7887 8.85627 24.1581 9.57599C25.3842 11.9652 25.7805 14.7203 25.2733 17.3341C25.0981 18.2395 25.3828 19.1696 26.0348 19.8219L29.1781 22.9651C29.1781 22.9651 27.3551 25.1861 27.1285 25.6473C25.2594 25.1213 23.3001 25.358 21.6561 26.2451L20.6341 25.2228C19.9827 24.5715 19.0515 24.2877 18.1443 24.4631C14.2262 25.2209 10.1793 23.9654 7.31785 21.1038C4.97648 18.7622 3.71536 15.6839 3.74017 12.474L10.8879 19.6217C12.3615 21.092 14.742 21.1065 16.1949 19.6538L20.4647 15.3835C21.9184 13.9453 21.871 11.4996 20.431 10.0744L13.2859 2.9294C13.3086 2.9294 13.3316 2.9292 13.3545 2.9292C15.7629 2.9292 18.1288 3.65693 20.1538 5.04167C20.8216 5.49811 21.7333 5.32741 22.1897 4.65926C22.6465 3.99149 22.4753 3.07998 21.8075 2.62335C18.7181 0.511072 14.9879 -0.369776 11.3006 0.142131C10.4782 0.256583 9.80356 0.817122 9.54009 1.6052C9.2733 2.40323 9.47935 3.26943 10.0758 3.86317L18.3589 12.1463C18.6669 12.4664 18.7634 12.9308 18.3941 13.3111L14.1228 17.5825C13.8111 17.8942 13.2883 17.8786 12.9582 17.5493L4.67512 9.26623C4.07708 8.66838 3.21049 8.46389 2.41441 8.73088C1.62789 8.99475 1.06814 9.66915 0.953881 10.4908C0.312483 15.1044 1.91695 19.8462 5.24601 23.1754C8.7778 26.707 13.7734 28.2658 18.622 27.3543L19.4069 28.139C19.1001 28.5212 12.8623 37.8145 12.567 38.2524C10.2739 41.6543 10.3883 46.1478 12.8516 49.4338L17.9595 56.2496C18.448 56.9011 19.3681 57.0246 20.0103 56.5431C20.6575 56.058 20.789 55.1398 20.304 54.4924L15.1959 47.6764C13.4799 45.3874 13.3998 42.2582 14.9965 39.8892L21.5141 30.2152C22.6848 28.4769 25.0313 27.8242 26.9686 28.6955L40.1205 34.6719C41.6885 35.3846 42.4031 37.1893 41.7475 38.7799C41.0832 40.3918 39.1795 41.1802 37.5723 40.5017C37.477 40.4615 32.9044 38.5344 32.8152 38.5041C30.5625 37.7391 28.0615 38.4631 26.5922 40.3051L24.9496 42.3617C24.4448 42.9939 24.5479 43.9156 25.1801 44.4204C25.8119 44.9253 26.7338 44.8218 27.2389 44.19L28.882 42.1328C29.9593 40.7781 31.64 40.9996 33.0388 41.7726L53.8354 62.5694C53.1502 66.211 53.8594 69.9351 55.7519 73.0611V80.5416C55.3545 80.4746 54.9469 80.4379 54.5307 80.4379H32.0294C31.6861 80.4379 31.3488 80.4635 31.0177 80.5094V72.0275C31.0177 69.9088 30.3418 67.8869 29.0631 66.1803L24.3631 59.9089C23.878 59.2616 22.9596 59.1298 22.3124 59.6153C21.6651 60.1005 21.5337 61.0187 22.0186 61.6659L26.7186 67.9373C27.6145 69.133 28.0881 70.5472 28.0881 72.0275V81.5936C26.0559 82.8967 24.7053 85.1738 24.7053 87.762V98.5351C24.7053 99.3441 25.361 100 26.1701 100C26.9793 100 27.635 99.3441 27.635 98.5351V87.762C27.635 85.3388 29.6064 83.3676 32.0294 83.3676H54.5307C56.9537 83.3676 58.9252 85.3388 58.9252 87.762V98.5351C58.9252 99.3441 59.5808 100 60.39 100C61.1991 100 61.8548 99.3441 61.8548 98.5351V87.762C61.8548 85.2636 60.5966 83.0547 58.6816 81.7322V76.5686C61.4517 79.0188 65.0376 80.3748 68.6871 80.3748C69.3586 80.3748 70.0332 80.3289 70.7041 80.2356C71.5248 80.1188 72.1978 79.5577 72.4603 78.7713C72.7259 77.9753 72.5207 77.11 71.9242 76.5132L63.6399 68.2289C63.3392 67.917 63.2401 67.4482 63.6061 67.067L67.8758 62.795C68.1879 62.4839 68.7113 62.4989 69.0418 62.829L77.3253 71.1123C77.9229 71.7097 78.7889 71.9146 79.586 71.6474C80.3723 71.3835 80.9321 70.7091 81.0463 69.8875C81.6881 65.2721 80.0835 60.5302 76.7544 57.2033ZM56.4092 38.8141C57.5771 37.4582 59.6466 37.3039 61.0171 38.4328C62.3466 39.5279 62.544 41.542 61.407 42.8474L56.8463 48.1401C55.6857 49.4874 53.6186 49.6581 52.2383 48.5214C50.9026 47.4212 50.7128 45.4126 51.8485 44.1068L56.4092 38.8141ZM62.0603 51.7061L59.6865 49.3323L61.6468 47.0573L62.0603 51.7061ZM49.1917 32.8692C50.353 31.5216 52.4206 31.3501 53.8012 32.487C55.1322 33.5833 55.3238 35.5983 54.1891 36.902L49.6286 42.1949C48.4677 43.5421 46.4013 43.7128 45.0224 42.5761C44.4726 42.1222 44.1066 41.5207 43.9568 40.8515C44.5287 39.9545 44.8707 38.8637 44.916 37.8295L49.1917 32.8692ZM29.8382 26.782C29.94 26.6013 34.7585 20.9768 34.7585 20.9768C35.919 19.6298 37.986 19.4581 39.3658 20.5946C40.6965 21.6907 40.8916 23.7045 39.7557 25.0096L35.8679 29.5218L29.8382 26.782ZM41.3326 32.005L38.6469 30.7845L41.975 26.9218C43.1359 25.5748 45.2025 25.4039 46.5824 26.5416C47.9146 27.6402 48.1079 29.6521 46.9726 30.9564L44.0242 34.377C43.4076 33.3712 42.4924 32.5321 41.3326 32.005ZM71.1127 60.7563C69.6402 59.2872 67.2602 59.271 65.8055 60.7228L61.5359 64.9948C60.0788 66.4313 60.1146 68.8641 61.5696 70.3017L68.7139 77.446H68.6807C65.5046 77.446 62.3804 76.1671 60.0849 73.873C57.2226 71.0089 55.9674 66.9611 56.7273 63.0444C56.9031 62.1354 56.6174 61.2042 55.9658 60.5565L39.0813 43.672C39.9942 43.631 40.8641 43.3902 41.6424 42.9824C42.0123 43.682 42.5224 44.3109 43.1584 44.8359C44.5953 46.0222 46.4083 46.4562 48.1659 46.1644C48.1784 47.9544 48.9792 49.6313 50.376 50.7823C52.4225 52.4684 55.3016 52.6459 57.539 51.3278L61.3698 55.1584C62.0165 55.8023 62.9583 56.0865 63.8503 55.9156C67.7711 55.1648 71.816 56.4095 74.6831 59.2745C76.9856 61.5755 78.2651 64.7116 78.2563 67.8996L71.1127 60.7563Z" stroke="#356AFB" stroke-width="0.4" mask="url(#path-1-outside-1_157:3207)"/>
</svg>
