<svg width="93" height="94" viewBox="0 0 93 94" fill="none" xmlns="http://www.w3.org/2000/svg">
<path d="M42.0111 48.4064C42.382 48.2212 42.6641 47.8962 42.7954 47.503C42.9267 47.1097 42.8963 46.6804 42.7111 46.3095C42.5259 45.9387 42.2009 45.6565 41.8076 45.5253C41.4144 45.394 40.9851 45.4243 40.6142 45.6095C39.8604 45.9849 39.0298 46.1803 38.1877 46.1803C37.3456 46.1803 36.5149 45.9849 35.7611 45.6095C35.3902 45.4243 34.9609 45.394 34.5677 45.5253C34.1744 45.6565 33.8495 45.9387 33.6642 46.3095C33.479 46.6804 33.4487 47.1097 33.58 47.503C33.7112 47.8962 33.9933 48.2212 34.3642 48.4064C35.5524 48.9967 36.861 49.3038 38.1877 49.3038C39.5143 49.3038 40.823 48.9967 42.0111 48.4064Z" fill="#356AFB"/>
<path d="M35.0626 37.625C35.415 37.6257 35.7573 37.5072 36.0339 37.2888C36.3105 37.0704 36.5051 36.7649 36.5862 36.422C36.6673 36.079 36.63 35.7187 36.4805 35.3996C36.331 35.0805 36.078 34.8213 35.7626 34.6641C34.5743 34.0744 33.2657 33.7676 31.9391 33.7676C30.6126 33.7676 29.304 34.0744 28.1157 34.6641C27.7448 34.8493 27.4627 35.1743 27.3314 35.5675C27.2001 35.9608 27.2305 36.39 27.4157 36.7609C27.6009 37.1318 27.9259 37.4139 28.3192 37.5452C28.7124 37.6765 29.1417 37.6462 29.5126 37.4609C30.2664 37.0855 31.097 36.8902 31.9391 36.8902C32.7812 36.8902 33.6119 37.0855 34.3657 37.4609C34.5822 37.5688 34.8207 37.625 35.0626 37.625Z" fill="#356AFB"/>
<path d="M42.0111 37.4687C42.7649 37.0934 43.5956 36.898 44.4377 36.898C45.2798 36.898 46.1104 37.0934 46.8642 37.4687C47.0479 37.5605 47.2478 37.6151 47.4526 37.6296C47.6573 37.644 47.8629 37.618 48.0577 37.553C48.2524 37.488 48.4324 37.3853 48.5874 37.2507C48.7424 37.1162 48.8694 36.9524 48.9611 36.7687C49.0528 36.5851 49.1075 36.3852 49.122 36.1804C49.1364 35.9757 49.1104 35.77 49.0454 35.5753C48.9804 35.3806 48.8777 35.2006 48.7431 35.0456C48.6085 34.8906 48.4448 34.7636 48.2611 34.6719C47.0728 34.0822 45.7642 33.7754 44.4377 33.7754C43.1111 33.7754 41.8025 34.0822 40.6142 34.6719C40.2433 34.8571 39.9612 35.1821 39.83 35.5753C39.6987 35.9686 39.729 36.3979 39.9142 36.7687C40.0995 37.1396 40.4245 37.4217 40.8177 37.553C41.2109 37.6843 41.6402 37.654 42.0111 37.4687Z" fill="#356AFB"/>
<path d="M91.3125 73.5625H87.2843C86.8699 73.5625 86.4725 73.3979 86.1795 73.1049C85.8865 72.8119 85.7218 72.4144 85.7218 72C85.7218 71.5856 85.8865 71.1882 86.1795 70.8952C86.4725 70.6022 86.8699 70.4375 87.2843 70.4375H91.3125C91.5718 70.4374 91.8271 70.3727 92.0552 70.2493C92.2833 70.1258 92.4772 69.9476 92.6192 69.7305C92.7612 69.5135 92.8469 69.2645 92.8687 69.006C92.8904 68.7476 92.8475 68.4878 92.7437 68.25C92.0513 66.6606 90.9311 65.2945 89.5081 64.3042C88.085 63.3138 86.415 62.7379 84.6839 62.6407C82.9529 62.5435 81.2289 62.9288 79.7039 63.7537C78.1789 64.5785 76.9129 65.8106 76.0469 67.3125H74.4687C74.0328 66.823 73.4986 66.4308 72.9009 66.1615C72.3032 65.8923 71.6555 65.7521 71 65.75H66.3125C65.657 65.7521 65.0092 65.8923 64.4116 66.1615C63.8139 66.4308 63.2796 66.823 62.8437 67.3125H59.1594C58.137 67.3163 57.1446 67.6573 56.3359 68.2829L55.375 66.8438V56.375C57.3498 56.3761 59.2874 56.9118 60.9823 57.9253C62.6772 58.9387 64.0661 60.3921 65.0015 62.1313C65.1984 62.496 65.532 62.7675 65.9291 62.8862C66.3261 63.0049 66.7541 62.9609 67.1187 62.7641C67.4834 62.5673 67.7549 62.2336 67.8736 61.8366C67.9923 61.4395 67.9484 61.0116 67.7515 60.6469C66.5496 58.4106 64.764 56.5418 62.5847 55.2393C60.4054 53.9369 57.9138 53.2494 55.375 53.25H48.039C50.3023 51.6685 52.1508 49.5645 53.4279 47.1165C54.7049 44.6685 55.3728 41.9486 55.375 39.1875V39.0313C57.1384 38.6686 58.7229 37.7091 59.8614 36.3145C60.9998 34.9199 61.6227 33.1754 61.625 31.375V26.6875C61.625 25.4443 61.1311 24.2521 60.252 23.373C59.373 22.4939 58.1807 22 56.9375 22C56.9382 18.498 55.9515 15.0667 54.0906 12.1L55.0937 9.89535C55.2817 9.48254 55.3776 9.03375 55.3746 8.58016C55.3717 8.12657 55.2701 7.67906 55.0768 7.2687C54.8835 6.85834 54.6032 6.49498 54.2554 6.20386C53.9075 5.91273 53.5005 5.70082 53.0625 5.58285L50.5875 4.92035C50.0496 4.76954 49.4807 4.76919 48.9426 4.91934C48.4045 5.06949 47.918 5.36439 47.5359 5.77191C46.7908 5.33815 46.0166 4.95651 45.2187 4.62972C45.1781 3.41814 44.667 2.27005 43.7939 1.42905C42.9208 0.588041 41.7544 0.120291 40.5422 0.125036H35.8328C34.6205 0.120291 33.4541 0.588041 32.581 1.42905C31.7079 2.27005 31.1969 3.41814 31.1562 4.62972C30.3573 4.95638 29.582 5.33802 28.8359 5.77191C28.4539 5.36439 27.9673 5.06949 27.4292 4.91934C26.8912 4.76919 26.3222 4.76954 25.7844 4.92035L23.3094 5.58285C22.8714 5.70082 22.4643 5.91273 22.1165 6.20386C21.7686 6.49498 21.4883 6.85834 21.295 7.2687C21.1018 7.67906 21.0001 8.12657 20.9972 8.58016C20.9943 9.03375 21.0901 9.48254 21.2781 9.89535L22.2812 12.1C20.4214 15.0671 19.4358 18.4983 19.4375 22C18.1943 22 17.002 22.4939 16.1229 23.373C15.2439 24.2521 14.75 25.4443 14.75 26.6875V31.375C14.7523 33.1754 15.3751 34.9199 16.5136 36.3145C17.6521 37.7091 19.2366 38.6686 21 39.0313V39.1875C21.003 41.9493 21.6721 44.6696 22.9506 47.1177C24.229 49.5658 26.079 51.6694 28.3437 53.25H21C17.5428 53.2547 14.2082 54.5314 11.6318 56.8366C9.05532 59.1419 7.41723 62.3146 7.02969 65.75H5.375C4.1318 65.75 2.93951 66.2439 2.06044 67.123C1.18136 68.0021 0.6875 69.1943 0.6875 70.4375V73.3782C0.688533 74.7692 1.01211 76.1411 1.63281 77.386C2.03733 78.197 2.24857 79.0906 2.25 79.9969V80.4657C2.25007 81.934 2.01371 83.3928 1.55 84.786C0.978459 86.4978 0.687208 88.2907 0.6875 90.0954V92.3125C0.6875 92.7269 0.85212 93.1244 1.14515 93.4174C1.43817 93.7104 1.8356 93.875 2.25 93.875C2.6644 93.875 3.06183 93.7104 3.35485 93.4174C3.64788 93.1244 3.8125 92.7269 3.8125 92.3125V90.0954C3.81243 88.627 4.04879 87.1682 4.5125 85.775C5.08387 84.0637 5.37512 82.2714 5.375 80.4672V79.9985C5.37664 78.6075 5.05573 77.2351 4.4375 75.9891C4.03028 75.1788 3.81635 74.2851 3.8125 73.3782V70.4375C3.8125 70.0231 3.97712 69.6257 4.27015 69.3327C4.56317 69.0397 4.9606 68.875 5.375 68.875H10.0625C10.4769 68.875 10.8743 69.0397 11.1674 69.3327C11.4604 69.6257 11.625 70.0231 11.625 70.4375V73.3782C11.6236 74.2845 11.4123 75.1781 11.0078 75.9891C10.3871 77.234 10.0635 78.6059 10.0625 79.9969V80.4657C10.0619 82.2714 10.3531 84.0654 10.925 85.7782C11.3884 87.1704 11.6247 88.6281 11.625 90.0954V92.3125C11.625 92.7269 11.7896 93.1244 12.0826 93.4174C12.3757 93.7104 12.7731 93.875 13.1875 93.875C13.6019 93.875 13.9993 93.7104 14.2923 93.4174C14.5854 93.1244 14.75 92.7269 14.75 92.3125V90.0954C14.7506 88.2896 14.4594 86.4956 13.8875 84.7829C13.4243 83.3912 13.1879 81.934 13.1875 80.4672V79.9985C13.1889 79.0922 13.4002 78.1985 13.8047 77.3875C13.9172 77.161 14.0109 76.9188 14.1047 76.6891H17.875V92.3125C17.875 92.7269 18.0396 93.1244 18.3326 93.4174C18.6257 93.7104 19.0231 93.875 19.4375 93.875C19.8519 93.875 20.2493 93.7104 20.5423 93.4174C20.8354 93.1244 21 92.7269 21 92.3125V81.375H36.625V84.5H25.6875C25.2731 84.5 24.8757 84.6647 24.5826 84.9577C24.2896 85.2507 24.125 85.6481 24.125 86.0625C24.125 86.4769 24.2896 86.8744 24.5826 87.1674C24.8757 87.4604 25.2731 87.625 25.6875 87.625H36.625V92.3125C36.625 92.7269 36.7896 93.1244 37.0826 93.4174C37.3757 93.7104 37.7731 93.875 38.1875 93.875C38.6019 93.875 38.9993 93.7104 39.2923 93.4174C39.5854 93.1244 39.75 92.7269 39.75 92.3125V87.625H55.375V92.3125C55.375 92.7269 55.5396 93.1244 55.8326 93.4174C56.1257 93.7104 56.5231 93.875 56.9375 93.875C57.3519 93.875 57.7493 93.7104 58.0423 93.4174C58.3354 93.1244 58.5 92.7269 58.5 92.3125V76.6204C58.7179 76.6587 58.9382 76.6811 59.1594 76.6875H62.2719C62.364 76.9235 62.4578 77.1563 62.5703 77.386C62.9775 78.1963 63.1914 79.09 63.1953 79.9969V80.4657C63.1954 81.934 62.959 83.3928 62.4953 84.786C61.9234 86.4988 61.6322 88.2927 61.6328 90.0985V92.3125C61.6328 92.7269 61.7974 93.1244 62.0904 93.4174C62.3835 93.7104 62.7809 93.875 63.1953 93.875C63.6097 93.875 64.0071 93.7104 64.3002 93.4174C64.5932 93.1244 64.7578 92.7269 64.7578 92.3125V90.0954C64.7577 88.627 64.9941 87.1682 65.4578 85.775C66.0297 84.0623 66.3209 82.2683 66.3203 80.4625V79.9938C66.3217 78.6034 66.0008 77.2315 65.3828 75.986C64.9756 75.1756 64.7617 74.282 64.7578 73.375V70.4375C64.7578 70.0231 64.9224 69.6257 65.2154 69.3327C65.5085 69.0397 65.9059 68.875 66.3203 68.875H71.0078C71.4222 68.875 71.8196 69.0397 72.1126 69.3327C72.4057 69.6257 72.5703 70.0231 72.5703 70.4375V73.3782C72.5664 74.2851 72.3525 75.1788 71.9453 75.9891C71.3273 77.2346 71.0064 78.6065 71.0078 79.9969V80.4657C71.0072 82.2714 71.2984 84.0654 71.8703 85.7782C72.331 87.1708 72.5647 88.6285 72.5625 90.0954V92.3125C72.5625 92.7269 72.7271 93.1244 73.0201 93.4174C73.3131 93.7104 73.7106 93.875 74.125 93.875C74.5394 93.875 74.9368 93.7104 75.2298 93.4174C75.5229 93.1244 75.6875 92.7269 75.6875 92.3125V90.0954C75.6881 88.2896 75.3969 86.4956 74.825 84.7829C74.3618 83.3912 74.1254 81.934 74.125 80.4672V79.9985C74.1288 79.0916 74.3428 78.1979 74.75 77.3875C74.8625 77.161 74.9562 76.9188 75.05 76.6891H76.0547C76.9207 78.1911 78.1867 79.4231 79.7117 80.248C81.2367 81.0728 82.9607 81.4581 84.6917 81.3609C86.4228 81.2637 88.0928 80.6879 89.5159 79.6975C90.9389 78.7071 92.0591 77.3411 92.7515 75.7516C92.8559 75.5132 92.8991 75.2525 92.8771 74.9932C92.8551 74.7339 92.7688 74.4842 92.6258 74.2667C92.4829 74.0492 92.2878 73.8709 92.0585 73.748C91.8291 73.625 91.5727 73.5613 91.3125 73.5625ZM38.1875 72.6844L31.9375 65.1844V61.7813C33.6508 63.33 35.878 64.1874 38.1875 64.1874C40.497 64.1874 42.7242 63.33 44.4375 61.7813V65.1844L38.1875 72.6844ZM31.9766 55.1954C35.9678 56.7683 40.4072 56.7683 44.3984 55.1954C44.3111 56.7836 43.6187 58.278 42.4635 59.3715C41.3083 60.4649 39.7781 61.0743 38.1875 61.0743C36.5969 61.0743 35.0667 60.4649 33.9115 59.3715C32.7563 58.278 32.0639 56.7836 31.9766 55.1954ZM55.375 35.7954V31.375H58.5C58.4988 32.3442 58.1978 33.2893 57.6384 34.0807C57.0789 34.8721 56.2883 35.471 55.375 35.7954ZM49.775 7.93754L52.25 8.6016L49.625 14.3688L49.1562 14.2453L49.775 7.93754ZM34.6187 3.83441C34.764 3.65183 34.9486 3.50444 35.1589 3.40325C35.3691 3.30206 35.5995 3.24968 35.8328 3.25004H40.5422C40.776 3.25031 41.0068 3.30306 41.2175 3.40441C41.4283 3.50575 41.6136 3.6531 41.7598 3.83559C41.906 4.01809 42.0093 4.23107 42.0623 4.45883C42.1152 4.68659 42.1164 4.92334 42.0656 5.1516L40.0625 14.1875H36.3125L34.3094 5.1516C34.2572 4.92319 34.2577 4.68592 34.3108 4.45773C34.3638 4.22953 34.4681 4.01639 34.6156 3.83441H34.6187ZM26.6 7.93754L27.2109 14.2453L26.7422 14.3688L24.125 8.60004L26.6 7.93754ZM23.9125 15.6782L24.4531 16.8672C24.6062 17.2039 24.8738 17.4754 25.2083 17.6333C25.5427 17.7913 25.9224 17.8254 26.2797 17.7297L29.2984 16.9203C29.6554 16.8245 29.9669 16.6052 30.1774 16.3013C30.388 15.9975 30.484 15.6289 30.4484 15.261L29.8234 8.86566C30.424 8.47872 31.0504 8.13364 31.6984 7.83285L33.5328 16.0891C33.6101 16.4369 33.8039 16.7478 34.0821 16.9703C34.3603 17.1928 34.7062 17.3135 35.0625 17.3125H41.3125C41.6682 17.3128 42.0134 17.1917 42.2909 16.9693C42.5685 16.7468 42.7619 16.4363 42.8391 16.0891L44.6734 7.83285C45.3214 8.13364 45.9479 8.47872 46.5484 8.86566L45.9234 15.261C45.8879 15.6289 45.9839 15.9975 46.1944 16.3013C46.405 16.6052 46.7164 16.8245 47.0734 16.9203L50.0922 17.7297C50.4495 17.8254 50.8291 17.7913 51.1636 17.6333C51.498 17.4754 51.7656 17.2039 51.9187 16.8672L52.4594 15.6782C53.3495 17.667 53.8106 19.8211 53.8125 22H22.5625C22.5634 19.8213 23.0234 17.6672 23.9125 15.6782ZM17.875 31.375H21V35.7954C20.0867 35.471 19.2961 34.8721 18.7366 34.0807C18.1771 33.2893 17.8762 32.3442 17.875 31.375ZM24.125 39.1875V31.375H47.5625C47.9769 31.375 48.3743 31.2104 48.6673 30.9174C48.9604 30.6244 49.125 30.2269 49.125 29.8125C49.125 29.3981 48.9604 29.0007 48.6673 28.7077C48.3743 28.4147 47.9769 28.25 47.5625 28.25H17.875V26.6875C17.875 26.2731 18.0396 25.8757 18.3326 25.5827C18.6257 25.2897 19.0231 25.125 19.4375 25.125H56.9375C57.3519 25.125 57.7493 25.2897 58.0423 25.5827C58.3354 25.8757 58.5 26.2731 58.5 26.6875V28.25H53.8125C53.3981 28.25 53.0007 28.4147 52.7076 28.7077C52.4146 29.0007 52.25 29.3981 52.25 29.8125V39.1875C52.25 42.9171 50.7684 46.494 48.1312 49.1312C45.4939 51.7685 41.9171 53.25 38.1875 53.25C34.4579 53.25 30.881 51.7685 28.2438 49.1312C25.6066 46.494 24.125 42.9171 24.125 39.1875ZM22.5625 59.5C22.1481 59.5 21.7507 59.6647 21.4576 59.9577C21.1646 60.2507 21 60.6481 21 61.0625V66.8438L18.1375 71.1375C17.9677 71.3932 17.8764 71.6931 17.875 72V73.5625H14.7391C14.7391 73.5016 14.75 73.4391 14.75 73.3782V70.4375C14.7472 69.2176 14.2688 68.0468 13.4166 67.1739C12.5644 66.301 11.4055 65.7947 10.1859 65.7625C10.5586 63.1591 11.857 60.7771 13.8431 59.053C15.8292 57.3289 18.37 56.3782 21 56.375H28.8125V65.75C28.8122 66.1153 28.9399 66.4691 29.1734 66.75L36.625 75.6907V78.25H21V72.4688L23.8625 68.175C24.0323 67.9193 24.1236 67.6195 24.125 67.3125V61.0625C24.125 60.6481 23.9604 60.2507 23.6673 59.9577C23.3743 59.6647 22.9769 59.5 22.5625 59.5ZM39.75 84.5V81.375H50.6875C51.1019 81.375 51.4993 81.2104 51.7923 80.9174C52.0854 80.6244 52.25 80.2269 52.25 79.8125C52.25 79.3981 52.0854 79.0007 51.7923 78.7077C51.4993 78.4147 51.1019 78.25 50.6875 78.25H39.75V75.6907L47.2015 66.75C47.4351 66.4691 47.5628 66.1153 47.5625 65.75V56.375H52.25V67.3125C52.2507 67.6211 52.3419 67.9226 52.5125 68.1797L54.5437 71.2344C54.4975 71.4871 54.4719 71.7432 54.4672 72C54.4705 72.9874 54.7885 73.948 55.375 74.7422V84.5H39.75ZM59.1594 73.5625C58.745 73.5625 58.3475 73.3979 58.0545 73.1049C57.7615 72.8119 57.5969 72.4144 57.5969 72C57.5969 71.5856 57.7615 71.1882 58.0545 70.8952C58.3475 70.6022 58.745 70.4375 59.1594 70.4375H61.625V73.3782C61.625 73.4391 61.6344 73.5016 61.6359 73.5625H59.1594ZM84.1593 78.25C82.9443 78.2488 81.756 77.8934 80.7398 77.2274C79.7235 76.5614 78.9235 75.6136 78.4375 74.5C78.3159 74.2215 78.1158 73.9845 77.8616 73.818C77.6074 73.6515 77.3101 73.5627 77.0062 73.5625H75.6765C75.6765 73.5016 75.6875 73.4391 75.6875 73.3782V70.4375H77.0062C77.3101 70.4374 77.6074 70.3486 77.8616 70.1821C78.1158 70.0156 78.3159 69.7786 78.4375 69.5C78.8296 68.5983 79.4294 67.802 80.188 67.1763C80.9466 66.5507 81.8425 66.1133 82.8024 65.9C83.7623 65.6867 84.7591 65.7034 85.7113 65.9489C86.6635 66.1944 87.5441 66.6617 88.2812 67.3125H87.2812C86.038 67.3125 84.8457 67.8064 83.9667 68.6855C83.0876 69.5646 82.5937 70.7568 82.5937 72C82.5937 73.2432 83.0876 74.4355 83.9667 75.3146C84.8457 76.1937 86.038 76.6875 87.2812 76.6875H88.2812C87.1435 77.6932 85.6778 78.2488 84.1593 78.25Z" fill="#356AFB"/>
</svg>
