<svg width="25" height="24" viewBox="0 0 25 24" fill="none" xmlns="http://www.w3.org/2000/svg">
<g id="Icons 24 px" clip-path="url(#clip0_690_27682)">
<circle class="circle" cx="12.5" cy="12" r="12" fill="#D9D9D9"/>
<g id="User">
<path d="M12.5 5C10.7011 5 9.24286 6.52682 9.24286 8.41026C9.24286 10.2937 10.7011 11.8205 12.5 11.8205C14.2989 11.8205 15.7571 10.2937 15.7571 8.41026C15.7571 6.52682 14.2989 5 12.5 5Z" fill="white"/>
<path d="M12.5 13.6154C10.9398 13.6154 9.50443 13.8628 8.44044 14.2805C7.91034 14.4886 7.44563 14.7495 7.1042 15.0664C6.76337 15.3828 6.5 15.801 6.5 16.3077C6.5 16.8144 6.76337 17.2326 7.1042 17.549C7.44563 17.8659 7.91034 18.1267 8.44044 18.3349C9.50443 18.7526 10.9398 19 12.5 19C14.0602 19 15.4956 18.7526 16.5596 18.3349C17.0897 18.1267 17.5544 17.8659 17.8958 17.549C18.2366 17.2326 18.5 16.8144 18.5 16.3077C18.5 15.801 18.2366 15.3828 17.8958 15.0664C17.5544 14.7495 17.0897 14.4886 16.5596 14.2805C15.4956 13.8628 14.0602 13.6154 12.5 13.6154Z" fill="white"/>
</g>
</g>
<defs>
<clipPath id="clip0_690_27682">
<rect width="24" height="24" fill="white" transform="translate(0.5)"/>
</clipPath>
</defs>
</svg>
