<svg width="24" height="24" viewBox="0 0 24 24" fill="none" xmlns="http://www.w3.org/2000/svg">
    <g clip-path="url(#clip0_690_37375)">
        <circle cx="12" cy="12" r="12" fill="#D9D9D9"/>
        <g clip-path="url(#clip1_690_37375)">
            <path d="M12.5544 6.69601C11.3819 5.52351 9.62606 5.28434 8.21439 5.97268L10.3319 8.09018C10.5594 8.31768 10.5594 8.68517 10.3319 8.91268L9.40439 9.84018C9.17689 10.0735 8.80939 10.0735 8.58189 9.84018L6.46439 7.72268C5.78189 9.14018 6.02106 10.8843 7.19356 12.0568C8.27856 13.1418 9.86523 13.4277 11.2127 12.9202L15.8561 17.5635C16.4569 18.1643 17.4252 18.1643 18.0202 17.5635C18.6211 16.9627 18.6211 15.9943 18.0202 15.3993L13.4002 10.7735C13.9369 9.40851 13.6569 7.79851 12.5544 6.69601Z" fill="white"/>
        </g>
    </g>
    <defs>
        <clipPath id="clip0_690_37375">
            <rect width="24" height="24" fill="white"/>
        </clipPath>
        <clipPath id="clip1_690_37375">
            <rect width="14" height="14" fill="white" transform="translate(5.5 5)"/>
        </clipPath>
    </defs>
</svg>
