<svg width="16" height="16" viewBox="0 0 16 16" fill="none" xmlns="http://www.w3.org/2000/svg">
<g id="icons 16px">
<path id="CheckMark" fill-rule="evenodd" clip-rule="evenodd" d="M7.65176 1.64064C7.84559 1.45312 8.15322 1.45312 8.34705 1.64064L9.65467 2.90563L11.4561 2.65083C11.7231 2.61306 11.972 2.79387 12.0186 3.05951L12.3329 4.8515L13.9401 5.70422C14.1783 5.83062 14.2734 6.12319 14.1549 6.36548L13.3559 8L14.1549 9.63452C14.2734 9.87681 14.1783 10.1694 13.9401 10.2958L12.3329 11.1485L12.0186 12.9405C11.972 13.2061 11.7231 13.3869 11.4561 13.3492L9.65467 13.0944L8.34705 14.3594C8.15322 14.5469 7.84559 14.5469 7.65176 14.3594L6.34414 13.0944L4.54272 13.3492C4.27568 13.3869 4.02681 13.2061 3.98021 12.9405L3.66587 11.1485L2.05872 10.2958C1.82048 10.1694 1.72542 9.87681 1.84386 9.63452L2.64286 8L1.84386 6.36548C1.72542 6.12319 1.82048 5.83062 2.05872 5.70422L3.66587 4.8515L3.98021 3.05951C4.02681 2.79387 4.27568 2.61306 4.54272 2.65083L6.34414 2.90563L7.65176 1.64064ZM10.3898 6.97901C10.5623 6.76338 10.5274 6.44874 10.3117 6.27623C10.0961 6.10373 9.78146 6.13869 9.60896 6.35432L7.29126 9.25143L6.35294 8.31311C6.15768 8.11785 5.8411 8.11785 5.64584 8.31311C5.45057 8.50838 5.45057 8.82496 5.64584 9.02022L6.97917 10.3536C7.07974 10.4541 7.21837 10.5071 7.36037 10.4992C7.50238 10.4914 7.63431 10.4234 7.72316 10.3123L10.3898 6.97901Z" fill="#63CA66"/>
</g>
</svg>
