<svg width="21" height="20" viewBox="0 0 21 20" fill="none" xmlns="http://www.w3.org/2000/svg">
<g id="Icons 20px">
<path id="Phone" d="M7.65589 2.72927C6.68353 1.75691 5.10703 1.75691 4.13468 2.72927L3.22927 3.63468C2.76233 4.10162 2.5 4.73493 2.5 5.39528V7.03754C2.5 7.33011 2.55106 7.63808 2.68276 7.93465C3.06088 8.7861 4.25178 11.145 6.80341 13.6966C9.35505 16.2482 11.7139 17.4391 12.5654 17.8172C12.8619 17.9489 13.1699 18 13.4625 18H15.1047C15.7651 18 16.3984 17.7377 16.8653 17.2707L17.7707 16.3653C18.7431 15.393 18.7431 13.8165 17.7707 12.8441L16.4792 11.5526C15.64 10.7134 14.3251 10.5832 13.3375 11.2415L12.7308 11.646C12.3875 11.8749 11.9739 11.8884 11.6586 11.7021C11.0817 11.3612 10.412 10.9178 9.99709 10.5029C9.58219 10.088 9.13882 9.41833 8.79792 8.84143C8.61157 8.52608 8.62515 8.11247 8.85402 7.76916L9.25847 7.16249C9.91683 6.17495 9.78662 4.86 8.94738 4.02075L7.65589 2.72927Z" fill="#1F1F1F"/>
</g>
</svg>
