<svg width="16" height="17" viewBox="0 0 16 17" fill="none" xmlns="http://www.w3.org/2000/svg">
<g id="icons 16px">
<path id="Star" d="M8.44777 2.27747C8.36329 2.10749 8.18984 2 8.00001 2C7.81019 2 7.63674 2.10749 7.55226 2.27747L5.8149 5.77329L1.92861 6.33407C1.73984 6.36131 1.583 6.49357 1.52429 6.67503C1.46558 6.8565 1.51522 7.05555 1.65226 7.18821L4.46232 9.90829L3.79911 13.7482C3.76674 13.9356 3.84348 14.1252 3.9971 14.2372C4.15073 14.3493 4.35463 14.3646 4.52321 14.2766L8.00001 12.4614L11.4768 14.2766C11.6454 14.3646 11.8493 14.3493 12.0029 14.2372C12.1566 14.1252 12.2333 13.9356 12.2009 13.7482L11.5377 9.90829L14.3478 7.18821C14.4848 7.05555 14.5344 6.8565 14.4757 6.67503C14.417 6.49357 14.2602 6.36131 14.0714 6.33407L10.1851 5.77329L8.44777 2.27747Z" fill="#FFCB46"/>
</g>
</svg>
