<svg width="103" height="70" viewBox="0 0 103 70" fill="none" xmlns="http://www.w3.org/2000/svg">
<path d="M0 59.2461H9.92166V61.534H2.29084V66.8692H9.92166V69.1571H0V59.2461Z" fill="black"/>
<path d="M10.9253 59.2461H20.847V69.1551H18.5562V65.3406H13.2142V69.1551H10.9233V59.2461H10.9253ZM13.2162 61.534V63.0546H18.5582V61.534H13.2162Z" fill="black"/>
<path d="M31.2858 59.2461H33.3033V69.1551H31.0144V62.4508L27.5761 65.3047L24.1439 62.4508V69.1551H21.853V59.2461H23.8705L27.5742 62.3292L31.2858 59.2461Z" fill="black"/>
<path d="M47.8763 59.2461V69.1551H45.5855V61.534H40.2435V69.1551H37.9526V59.2461H40.2435H45.5855H47.8763Z" fill="black"/>
<path d="M48.8818 59.2461H58.8035V65.3406H51.1727V69.1551H48.8818V59.2461ZM51.1727 61.534V63.0546H56.5147V61.534H51.1727Z" fill="black"/>
<path d="M59.8096 69.1551V59.2461H69.7312V69.1551H59.8096ZM62.0984 61.534V66.8692H67.4404V61.534H62.0984Z" fill="black"/>
<path d="M70.7349 59.2461H80.6565V65.3406H73.0257V69.1551H70.7349V59.2461ZM73.0257 61.534V63.0546H78.3677V61.534H73.0257Z" fill="black"/>
<path d="M81.6622 59.2461H91.5838V69.1551H89.293V65.3406H83.951V69.1551H81.6602V59.2461H81.6622ZM83.951 61.534V63.0546H89.293V61.534H83.951Z" fill="black"/>
<path d="M92.5879 59.2461H94.8787V63.0606H102.51V69.1551H92.5879V59.2461ZM92.5879 59.2461H102.51V61.534H94.8787V69.1551H92.5879V59.2461ZM100.221 66.8672V65.3466H94.8787V66.8672H100.221Z" fill="black"/>
<path d="M102.514 47.0448L84.0078 39.7347C83.3393 30.8221 79.5338 22.8025 73.681 16.7419L74.2836 12.2956C65.2879 2.01193 49.1123 -2.7353 35.5508 1.60935L38.9571 7.45869C53.8117 3.91521 69.5623 12.5786 74.8344 26.2563C68.361 15.0499 54.4044 8.41331 40.7431 10.5259L63.0529 48.8505H100.638L102.514 47.0448Z" fill="#F8B608"/>
<path d="M59.2822 46.4491C58.8971 46.1561 58.4182 46.0266 57.9373 46.0924C57.4563 46.1541 57.0273 46.4033 56.732 46.7879C56.5324 47.049 56.4067 47.3539 56.3688 47.6748L38.956 48.177C38.8702 47.314 38.4751 46.5248 37.8365 45.9249C37.4713 45.5841 37.0483 45.329 36.5913 45.1676L37.8265 40.6735C37.9802 40.7134 38.1418 40.7353 38.3034 40.7353C38.5349 40.7353 38.7744 40.6914 39.0019 40.5958C39.6105 40.3427 40.0076 39.7946 40.0994 39.1887H46.8722C46.8941 39.3661 46.94 39.5435 47.0118 39.7149C47.3431 40.5081 48.1114 40.9824 48.9216 40.9824C49.185 40.9824 49.4563 40.9306 49.7158 40.823C50.7674 40.3825 51.2643 39.1708 50.8273 38.1205C50.478 37.2855 49.6379 36.8012 48.7799 36.863L47.6305 31.1651C48.3009 30.8961 48.7739 30.2404 48.7739 29.4791C48.7739 28.4766 47.9597 27.6635 46.956 27.6635C45.9522 27.6635 45.1341 28.4766 45.1341 29.4791C45.1341 30.4815 45.9522 31.2986 46.956 31.2986C47.0079 31.2986 47.0577 31.2966 47.1056 31.2907L48.2491 36.9706C48.2052 36.9806 48.1632 36.9965 48.1194 37.0164C47.4169 37.3094 46.962 37.9491 46.8722 38.6526H40.0974C40.0794 38.5072 40.0375 38.3617 39.9797 38.2202C39.7921 37.7718 39.4409 37.423 38.9899 37.2396C38.5429 37.0543 38.052 37.0563 37.607 37.2416L34.5698 32.1636C34.4302 32.2812 34.2765 32.3728 34.1109 32.4406L37.148 37.5147C36.8687 37.7439 36.6671 38.0488 36.5614 38.3876L26.935 36.6975C26.941 36.6617 26.937 36.6258 26.937 36.5899C26.9211 36.1037 26.7155 35.6532 26.3583 35.3224C26.0031 34.9916 25.5402 34.8182 25.0573 34.8361C24.5704 34.8521 24.1214 35.0573 23.7881 35.4101C23.4569 35.7648 23.2832 36.2272 23.3012 36.7135C23.3172 37.1998 23.5227 37.6482 23.8759 37.979C23.8899 37.993 23.9019 38.0049 23.9198 38.0169L20.3498 43.5613C20.1004 43.4457 19.823 43.3919 19.5437 43.3999C19.0568 43.4178 18.6078 43.6231 18.2745 43.9778C17.9433 44.3326 17.7696 44.7949 17.7876 45.2812C17.7876 45.2952 17.7876 45.3111 17.7896 45.3251L4.38577 48.1571C4.29198 47.9239 4.14032 47.7086 3.95075 47.5293C3.67337 47.2722 3.33813 47.1187 2.98692 47.0649L4.88265 37.431C4.92656 37.4369 4.96846 37.4369 5.01236 37.4369C5.56711 37.4369 6.11787 37.2197 6.52496 36.7833C6.90211 36.3807 7.09966 35.8545 7.0817 35.3025C7.0817 35.2865 7.07971 35.2666 7.07572 35.2507L15.852 33.5666C16.0515 34.1286 16.5185 34.577 17.1371 34.7265C17.2827 34.7624 17.4244 34.7803 17.5681 34.7803C18.3883 34.7803 19.1326 34.2223 19.3361 33.3892C19.4519 32.9189 19.376 32.4306 19.1246 32.0161C18.8712 31.5996 18.4701 31.3086 17.9971 31.195C17.8555 31.1591 17.7118 31.1432 17.5721 31.1432C17.1989 31.1432 16.8397 31.2588 16.5424 31.4621L11.6514 26.2246C11.8151 26.0213 11.9348 25.7821 11.9966 25.521C12.1124 25.0507 12.0366 24.5624 11.7811 24.1479C11.7053 24.0243 11.6175 23.9107 11.5177 23.8131L16.1892 17.5293C16.4426 17.6668 16.736 17.7445 17.0413 17.7445C18.045 17.7445 18.8632 16.9314 18.8632 15.9289C18.8632 14.9265 18.045 14.1094 17.0413 14.1094C16.0375 14.1094 15.2234 14.9265 15.2234 15.9289C15.2234 16.4312 15.4269 16.8796 15.7542 17.2104L11.0847 23.4902C10.953 23.4185 10.8073 23.3647 10.6577 23.3268C10.516 23.2909 10.3723 23.275 10.2326 23.275C9.41246 23.275 8.66215 23.833 8.4606 24.6641C8.34686 25.1364 8.42269 25.6267 8.67612 26.0392C8.92955 26.4538 9.33064 26.7467 9.79959 26.8583C9.94526 26.8942 10.0869 26.9121 10.2326 26.9121C10.5639 26.9121 10.8871 26.8205 11.1765 26.6471C11.2064 26.6291 11.2324 26.6112 11.2603 26.5913L16.1453 31.8327C15.9837 32.032 15.8659 32.2712 15.8001 32.5343C15.7602 32.7037 15.7442 32.8751 15.7522 33.0385L6.97794 34.7225C6.87018 34.3977 6.6826 34.1047 6.42718 33.8656C5.59305 33.0883 4.284 33.1322 3.50575 33.9652C3.13459 34.3618 2.951 34.868 2.951 35.3722C2.951 35.9263 3.1725 36.4763 3.60553 36.8829C3.82902 37.0902 4.08445 37.2376 4.35584 37.3253L2.44015 47.0629C2.04703 47.1187 1.66988 47.3041 1.38053 47.617C1.04928 47.9717 0.875672 48.4361 0.891636 48.9204C0.909595 49.4066 1.11513 49.8551 1.47033 50.1879C1.80957 50.5048 2.24858 50.6762 2.70954 50.6762C2.7315 50.6762 2.75344 50.6762 2.7734 50.6742C3.25831 50.6582 3.70929 50.4529 4.04055 50.1002C4.3738 49.7454 4.54541 49.2811 4.52945 48.7968C4.52945 48.7569 4.52745 48.7171 4.51947 48.6792L17.9034 45.8552C17.9971 46.1163 18.1528 46.3514 18.3623 46.5487C18.7016 46.8656 19.1406 47.037 19.6015 47.037H19.6654C20.1523 47.0211 20.6013 46.8138 20.9325 46.4591C21.2658 46.1043 21.4374 45.6419 21.4214 45.1557C21.4055 44.6714 21.1999 44.221 20.8427 43.8901C20.8288 43.8762 20.8168 43.8642 20.7988 43.8523L24.3708 38.3079C24.6083 38.4155 24.8597 38.4693 25.1151 38.4693C25.602 38.4693 26.0869 38.276 26.4441 37.8913C26.6277 37.698 26.7614 37.4728 26.8392 37.2277L36.4776 38.9197C36.4776 39.1529 36.5234 39.392 36.6172 39.6212C36.7669 39.978 37.0203 40.263 37.3276 40.4543L36.0725 45.0241C35.8091 44.9763 35.5337 44.9544 35.2603 44.9623C34.3004 44.9982 33.4124 45.4008 32.7559 46.1023C32.0994 46.8038 31.7582 47.7166 31.7901 48.6752C31.826 49.6318 32.2291 50.5207 32.9315 51.1764V51.1744C33.602 51.8002 34.4681 52.141 35.382 52.141C35.4219 52.141 35.4658 52.141 35.5077 52.139C36.4656 52.1071 37.3556 51.7005 38.0101 51.003C38.5988 50.3712 38.936 49.5721 38.9759 48.7191L56.3887 48.2168C56.4666 48.6653 56.706 49.0599 57.0692 49.3389C57.4005 49.588 57.7876 49.7116 58.1747 49.7116C58.7235 49.7116 59.2643 49.4664 59.6215 49.0001C60.2321 48.2029 60.0784 47.0589 59.2822 46.4491ZM47.407 30.065C47.2832 30.1626 47.1236 30.2204 46.956 30.2204C46.934 30.2204 46.9101 30.2204 46.8881 30.2185C46.511 30.1826 46.2136 29.8657 46.2136 29.4791C46.2136 29.0705 46.5469 28.7377 46.956 28.7377C47.3651 28.7377 47.6983 29.0705 47.6983 29.4791C47.6963 29.7182 47.5846 29.9295 47.407 30.065ZM47.9657 38.6507C48.0375 38.3956 48.2131 38.1703 48.4666 38.0468C48.4885 38.0308 48.5125 38.0209 48.5364 38.0089C48.6601 37.9571 48.7898 37.9312 48.9176 37.9312C48.9415 37.9312 48.9694 37.9312 48.9934 37.9372C49.0952 37.9431 49.1949 37.9671 49.2927 38.0069C49.5382 38.1066 49.7277 38.2939 49.8315 38.539C50.041 39.0413 49.8056 39.6212 49.3007 39.8305C48.7978 40.0397 48.2171 39.8046 48.0076 39.3004C47.9916 39.2625 47.9777 39.2246 47.9677 39.1868C47.9138 39.0074 47.9178 38.822 47.9657 38.6507ZM16.8378 32.8252L16.8457 32.7854C16.8597 32.7336 16.8757 32.6857 16.8996 32.6399C16.9794 32.4685 17.1231 32.339 17.2947 32.2712C17.4324 32.2154 17.5861 32.2014 17.7417 32.2393C17.9333 32.2851 18.0969 32.4027 18.1987 32.5721C18.3044 32.7415 18.3324 32.9408 18.2865 33.1341C18.1887 33.5307 17.7896 33.7759 17.3905 33.6802C17.1969 33.6324 17.0373 33.5128 16.9415 33.3554H16.9395C16.8417 33.2019 16.8018 33.0146 16.8378 32.8252ZM17.0393 15.1856C17.4484 15.1856 17.7816 15.5184 17.7816 15.927C17.7816 16.3355 17.4484 16.6683 17.0393 16.6683C16.9714 16.6683 16.9076 16.6604 16.8457 16.6424C16.6661 16.5946 16.5105 16.479 16.4127 16.3236C16.3409 16.21 16.297 16.0744 16.297 15.9289C16.297 15.5184 16.6302 15.1856 17.0393 15.1856ZM10.947 25.266C10.933 25.3178 10.9171 25.3676 10.8931 25.4134C10.8133 25.5828 10.6696 25.7124 10.5 25.7781C10.3623 25.8339 10.2067 25.8479 10.051 25.81C9.85746 25.7642 9.69582 25.6426 9.59205 25.4752C9.49028 25.3078 9.45836 25.1065 9.50625 24.9172C9.60403 24.5206 10.0031 24.2755 10.4022 24.3711C10.4082 24.3731 10.4162 24.3731 10.4202 24.3771C10.5998 24.4249 10.7554 24.5385 10.8532 24.7C10.8552 24.7019 10.8592 24.7019 10.8592 24.7059C10.963 24.8753 10.9929 25.0726 10.947 25.266ZM4.33788 36.0917C3.94077 35.721 3.91882 35.0952 4.28999 34.6966C4.66115 34.296 5.28774 34.2781 5.68884 34.6488C5.77465 34.7285 5.84449 34.8242 5.89637 34.9258C5.96023 35.0514 5.99615 35.1909 6.00213 35.3364C6.00213 35.3762 6.00213 35.4141 5.99615 35.4539C5.98018 35.6712 5.88839 35.8804 5.73473 36.0419C5.56512 36.2252 5.33963 36.3328 5.09418 36.3508V36.3528C5.07821 36.3528 5.06225 36.3548 5.04628 36.3548C4.87667 36.3607 4.71303 36.3229 4.56537 36.2451C4.48355 36.2073 4.40772 36.1575 4.33788 36.0917ZM3.24833 49.3608C3.10266 49.5163 2.90311 49.598 2.70555 49.598C2.52596 49.598 2.34237 49.5302 2.20069 49.3987C2.13883 49.3389 2.08695 49.2691 2.05103 49.1954C2.04105 49.1814 2.03506 49.1655 2.02708 49.1495C1.99116 49.0658 1.97121 48.9782 1.96721 48.8845C1.95923 48.6852 2.03107 48.4978 2.16677 48.3524C2.17475 48.3444 2.18073 48.3384 2.18872 48.3344V48.3324C2.3304 48.1909 2.52197 48.1172 2.70954 48.1172C2.73349 48.1172 2.75544 48.1172 2.77939 48.1192C2.93504 48.1351 3.09069 48.1989 3.21441 48.3145C3.23835 48.3384 3.2623 48.3623 3.28225 48.3862C3.40398 48.5337 3.45985 48.7191 3.44589 48.9024C3.43591 49.0658 3.37205 49.2313 3.24833 49.3608ZM20.1423 45.7237C20.0086 45.8691 19.825 45.9528 19.6255 45.9568H19.5876C19.408 45.9568 19.2304 45.8871 19.0947 45.7575C19.0508 45.7177 19.0149 45.6718 18.9809 45.624C18.9051 45.5144 18.8632 45.3829 18.8572 45.2433C18.8552 45.1915 18.8592 45.1437 18.8672 45.0959C18.8911 44.9504 18.955 44.8189 19.0548 44.7112C19.1885 44.5697 19.374 44.482 19.5716 44.4781H19.5975C19.6454 44.4781 19.6953 44.484 19.7432 44.494C19.8769 44.5179 20.0006 44.5797 20.1044 44.6774C20.1403 44.7092 20.1683 44.7451 20.1982 44.783C20.284 44.9006 20.3319 45.0441 20.3379 45.1935C20.3498 45.3908 20.28 45.5782 20.1423 45.7237ZM25.7477 37.0364C25.7238 37.0802 25.6918 37.1201 25.6559 37.1579C25.4763 37.3512 25.2129 37.427 24.9695 37.3752C24.8377 37.3512 24.714 37.2915 24.6083 37.1918C24.5723 37.1599 24.5444 37.124 24.5145 37.0862C24.4287 36.9686 24.3768 36.8251 24.3728 36.6756C24.3668 36.4803 24.4366 36.289 24.5723 36.1435C24.706 36.002 24.8916 35.9183 25.0892 35.9103C25.2907 35.9024 25.4763 35.9741 25.622 36.1096C25.7377 36.2173 25.8136 36.3568 25.8435 36.5062C25.8515 36.5441 25.8574 36.584 25.8574 36.6238C25.8614 36.7713 25.8255 36.9148 25.7477 37.0364ZM37.6429 38.5769C37.6589 38.5371 37.6868 38.4992 37.7128 38.4633C37.7886 38.3637 37.8904 38.2839 38.0121 38.2321C38.066 38.2102 38.1199 38.1943 38.1737 38.1863C38.2176 38.1783 38.2575 38.1763 38.2994 38.1763C38.3932 38.1763 38.491 38.1943 38.5788 38.2321C38.7644 38.3039 38.9061 38.4474 38.9819 38.6287C38.9839 38.6347 38.9879 38.6427 38.9899 38.6467C39.0258 38.7344 39.0378 38.824 39.0378 38.9117C39.0378 39.0054 39.0198 39.0971 38.9839 39.1828C38.9161 39.3621 38.7744 39.5156 38.5828 39.5973C38.4272 39.6611 38.2595 39.6691 38.1099 39.6292C37.9183 39.5814 37.7487 39.4578 37.6509 39.2744C37.6369 39.2505 37.625 39.2266 37.613 39.1987C37.599 39.1688 37.5891 39.1369 37.5811 39.107C37.5312 38.9297 37.5571 38.7383 37.6429 38.5769ZM37.8904 48.745C37.8465 49.311 37.617 49.8431 37.2239 50.2636C36.7649 50.7559 36.1423 51.0369 35.4698 51.0608C35.4399 51.0608 35.408 51.0628 35.378 51.0628C34.7375 51.0628 34.1348 50.8216 33.6639 50.3852C33.175 49.9268 32.8896 49.305 32.8677 48.6334C32.8437 47.9617 33.0832 47.322 33.5422 46.8317C33.9991 46.3435 34.6237 46.0585 35.2962 46.0365C35.3261 46.0346 35.3561 46.0346 35.384 46.0346C35.5177 46.0346 35.6534 46.0445 35.7811 46.0664C35.9587 46.0924 36.1343 46.1422 36.3 46.2079H36.3019C36.5933 46.3215 36.8607 46.4929 37.0962 46.7102C37.5272 47.1068 37.7946 47.6349 37.8744 48.2069C37.8844 48.2906 37.8924 48.3763 37.8964 48.462C37.9004 48.5576 37.8984 48.6513 37.8904 48.745ZM58.7654 48.3424C58.516 48.6673 58.049 48.729 57.7237 48.4819C57.618 48.4022 57.5401 48.2966 57.4923 48.181C57.4204 48.0096 57.4124 47.8163 57.4783 47.6409C57.5002 47.5711 57.5382 47.5034 57.586 47.4416C57.7078 47.2821 57.8794 47.1845 58.0749 47.1566C58.1109 47.1506 58.1428 47.1506 58.1747 47.1506C58.3384 47.1506 58.494 47.2024 58.6237 47.3041C58.951 47.5532 59.0128 48.0195 58.7654 48.3424Z" fill="#F8B608"/>
<path d="M41.7611 27.6633C41.6972 27.183 41.4498 26.7545 41.0647 26.4595C40.2685 25.8497 39.123 26.0011 38.5124 26.7943C38.4745 26.8462 38.4366 26.896 38.4067 26.9498L30.3867 23.5378C30.5423 23.1373 30.6282 22.6988 30.6282 22.2464C30.6282 21.6764 30.4945 21.1363 30.257 20.658L37.2113 16.9989C37.5426 17.4474 38.0774 17.7403 38.678 17.7403C39.6818 17.7403 40.4959 16.9272 40.4959 15.9247C40.4959 14.9223 39.6818 14.1052 38.678 14.1052C38.0036 14.1052 37.4109 14.4759 37.0996 15.0239L34.0824 13.8521C34.1203 13.6966 34.1422 13.5332 34.1422 13.3638C34.1422 12.2278 33.2163 11.3011 32.0769 11.3011C31.4144 11.3011 30.8297 11.612 30.4506 12.0943L25.5276 9.19651C25.6134 8.98725 25.6593 8.75806 25.6593 8.51691C25.6593 8.40132 25.6494 8.28772 25.6274 8.17811L31.2168 6.23298C31.5201 6.81094 32.1288 7.20555 32.8252 7.20555C33.829 7.20555 34.6471 6.38843 34.6471 5.38598C34.6471 4.38352 33.829 3.56641 32.8252 3.56641C31.8215 3.56641 31.0073 4.38352 31.0073 5.38598C31.0073 5.50157 31.0173 5.61517 31.0392 5.72079L25.4478 7.66791C25.1465 7.08995 24.5379 6.69535 23.8414 6.69535C22.8357 6.69535 22.0195 7.51246 22.0195 8.51492C22.0195 9.51738 22.8337 10.3305 23.8414 10.3305C24.4121 10.3305 24.921 10.0674 25.2542 9.65888L30.1772 12.5566C30.0714 12.8038 30.0135 13.0768 30.0135 13.3618C30.0135 14.5018 30.9395 15.4285 32.0789 15.4285C32.8591 15.4285 33.5396 14.994 33.8888 14.3543H33.8908L36.906 15.5222C36.8761 15.6517 36.8601 15.7852 36.8601 15.9227C36.8601 16.132 36.896 16.3333 36.9659 16.5226L29.9856 20.1957C29.3371 19.2669 28.2595 18.6571 27.0402 18.6571C25.0587 18.6571 23.4463 20.2694 23.4463 22.2484C23.4463 24.2254 25.0567 25.8377 27.0402 25.8377C28.3752 25.8377 29.5426 25.1063 30.1612 24.0241L38.2011 27.446C38.1412 27.6692 38.1293 27.9044 38.1572 28.1416C38.1672 28.2213 38.1832 28.301 38.2051 28.3748L34.9604 29.7898C35.0582 29.9432 35.13 30.1086 35.1759 30.282L38.4206 28.869H38.4226C38.5324 29.0484 38.68 29.2098 38.8556 29.3453C39.1749 29.5905 39.5601 29.718 39.9592 29.718C40.039 29.718 40.1208 29.716 40.2006 29.7041C40.6815 29.6403 41.1106 29.3932 41.4059 29.0065C41.6972 28.6219 41.823 28.1436 41.7611 27.6633ZM38.1313 15.4245C38.265 15.277 38.4625 15.1834 38.678 15.1834C39.0871 15.1834 39.4204 15.5162 39.4204 15.9247C39.4204 16.3333 39.0871 16.6661 38.678 16.6661C38.4925 16.6661 38.3228 16.5984 38.1931 16.4828C38.0554 16.3672 37.9617 16.1978 37.9397 16.0104C37.9377 15.9845 37.9337 15.9546 37.9337 15.9247C37.9337 15.7314 38.0095 15.556 38.1313 15.4245ZM32.0789 5.35807C32.0949 4.96347 32.4201 4.6426 32.8212 4.6426C33.2303 4.6426 33.5636 4.97543 33.5636 5.38398C33.5636 5.79254 33.2303 6.12536 32.8212 6.12536C32.5957 6.12536 32.3942 6.02372 32.2585 5.86429C32.1447 5.73474 32.0789 5.56534 32.0789 5.38398V5.35807ZM24.5778 8.54282C24.5758 8.57272 24.5718 8.60461 24.5678 8.63051C24.5419 8.81785 24.4421 8.98327 24.2984 9.09487C24.1727 9.19651 24.013 9.2563 23.8394 9.2563C23.4284 9.2563 23.0971 8.92348 23.0971 8.51492C23.0971 8.10636 23.4284 7.77354 23.8394 7.77354C24.0629 7.77354 24.2645 7.87319 24.4022 8.03063C24.5119 8.16017 24.5798 8.32957 24.5798 8.51492V8.54282H24.5778ZM33.0547 13.4575C33.0387 13.6448 32.9689 13.8182 32.8631 13.9577C32.6835 14.1968 32.3942 14.3523 32.0729 14.3523C31.5261 14.3523 31.0831 13.9099 31.0831 13.3638C31.0831 13.2781 31.0931 13.1944 31.1151 13.1147C31.163 12.9353 31.2607 12.7739 31.3924 12.6523C31.57 12.4809 31.8095 12.3793 32.0729 12.3793C32.6197 12.3793 33.0607 12.8217 33.0607 13.3658C33.0607 13.3957 33.0587 13.4256 33.0547 13.4575ZM29.3969 23.1173C29.3351 23.2867 29.2513 23.4482 29.1555 23.5976C28.7085 24.2952 27.9262 24.7575 27.0362 24.7575C25.6474 24.7575 24.5179 23.6295 24.5179 22.2464C24.5179 20.8593 25.6474 19.7313 27.0362 19.7313C27.8404 19.7313 28.5588 20.11 29.0178 20.7019C29.1315 20.8414 29.2253 20.9948 29.3051 21.1582C29.4648 21.4851 29.5526 21.8558 29.5526 22.2464C29.5526 22.5533 29.4967 22.8463 29.3969 23.1173ZM40.5458 28.3528C40.4241 28.5083 40.2505 28.6099 40.0529 28.6358C39.8574 28.6617 39.6638 28.6119 39.5042 28.4903C39.4782 28.4724 39.4523 28.4505 39.4323 28.4266C39.3166 28.311 39.2448 28.1635 39.2228 28.0001C39.2208 27.9762 39.2168 27.9542 39.2168 27.9323C39.2148 27.9144 39.2148 27.8964 39.2168 27.8785C39.2188 27.7231 39.2707 27.5776 39.3665 27.452C39.3844 27.4281 39.4044 27.4062 39.4264 27.3842C39.568 27.2368 39.7596 27.161 39.9572 27.161C40.1168 27.161 40.2744 27.2129 40.4081 27.3145C40.5638 27.4361 40.6656 27.6095 40.6935 27.8068C40.7174 28.0021 40.6676 28.1954 40.5458 28.3528Z" fill="#F8B608"/>
<path d="M35.1702 30.2847C35.1243 30.1133 35.0525 29.9459 34.9547 29.7924C34.8828 29.6768 34.795 29.5692 34.6992 29.4735C34.358 29.1287 33.901 28.9414 33.4141 28.9414C32.9272 28.9414 32.4703 29.1287 32.1251 29.4735C31.4166 30.183 31.4166 31.335 32.1251 32.0445C32.4703 32.3892 32.9272 32.5766 33.4141 32.5766C33.6556 32.5766 33.8931 32.5307 34.1086 32.4391C34.2762 32.3713 34.4279 32.2796 34.5675 32.162C34.6134 32.1242 34.6553 32.0863 34.6992 32.0445C35.0445 31.6997 35.234 31.2433 35.234 30.757C35.234 30.5976 35.2141 30.4381 35.1702 30.2847ZM33.9968 31.2154C33.9789 31.2393 33.9589 31.2612 33.937 31.2831C33.8272 31.3967 33.6835 31.4625 33.5339 31.4844C33.494 31.4924 33.4541 31.4944 33.4122 31.4944C33.2186 31.4944 33.027 31.4246 32.8873 31.2831C32.596 30.9962 32.596 30.5258 32.8873 30.2348C33.027 30.0953 33.2126 30.0196 33.4122 30.0196C33.6117 30.0196 33.7973 30.0953 33.937 30.2348L33.939 30.2368C34.0767 30.3743 34.1465 30.5537 34.1545 30.7311C34.1625 30.9025 34.1106 31.0759 33.9968 31.2154Z" fill="#F8B608"/>
</svg>
