<svg width="138" height="93" viewBox="0 0 138 93" fill="none" xmlns="http://www.w3.org/2000/svg">
<path d="M0 79.6719H13.3561V82.7486H3.08383V89.9231H13.3561V92.9998H0V79.6719Z" fill="black"/>
<path d="M14.7073 79.6719H28.0634V92.9972H24.9796V87.8675H17.7884V92.9972H14.7046V79.6719H14.7073ZM17.7911 82.7486V84.7935H24.9823V82.7486H17.7911Z" fill="black"/>
<path d="M42.1155 79.6719H44.8313V92.9972H41.7501V83.9814L37.1217 87.8193L32.5013 83.9814V92.9972H29.4175V79.6719H32.1333L37.119 83.8179L42.1155 79.6719Z" fill="black"/>
<path d="M64.4491 79.6719V92.9972H61.3653V82.7486H54.1742V92.9972H51.0903V79.6719H54.1742H61.3653H64.4491Z" fill="black"/>
<path d="M65.8027 79.6719H79.1589V87.8675H68.8866V92.9972H65.8027V79.6719ZM68.8866 82.7486V84.7935H76.0777V82.7486H68.8866Z" fill="black"/>
<path d="M80.5127 92.9972V79.6719H93.8688V92.9972H80.5127ZM83.5938 82.7486V89.9231H90.785V82.7486H83.5938Z" fill="black"/>
<path d="M95.2202 79.6719H108.576V87.8675H98.3041V92.9972H95.2202V79.6719ZM98.3041 82.7486V84.7935H105.495V82.7486H98.3041Z" fill="black"/>
<path d="M109.93 79.6719H123.286V92.9972H120.202V87.8675H113.011V92.9972H109.927V79.6719H109.93ZM113.011 82.7486V84.7935H120.202V82.7486H113.011Z" fill="black"/>
<path d="M124.637 79.6719H127.721V84.8015H137.993V92.9972H124.637V79.6719ZM124.637 79.6719H137.993V82.7486H127.721V92.9972H124.637V79.6719ZM134.912 89.9204V87.8756H127.721V89.9204H134.912Z" fill="black"/>
<path d="M138 63.2642L113.088 53.4338C112.188 41.4485 107.065 30.664 99.1861 22.5139L99.9974 16.5347C87.8877 2.70557 66.1128 -3.67833 47.8569 2.1642L52.4424 10.0302C72.439 5.26503 93.6417 16.9153 100.739 35.3085C92.0246 20.2385 73.2368 11.3139 54.8466 14.1548L84.8791 65.6924H135.475L138 63.2642Z" fill="#FFCB46"/>
<path d="M79.8029 62.4629C79.2845 62.069 78.6398 61.8948 77.9924 61.9832C77.345 62.0663 76.7675 62.4013 76.3699 62.9185C76.1013 63.2696 75.932 63.6797 75.881 64.1112L52.4406 64.7865C52.3251 63.6261 51.7932 62.5648 50.9336 61.7581C50.442 61.2998 49.8726 60.9567 49.2574 60.7397L50.9202 54.6961C51.127 54.7497 51.3446 54.7792 51.5622 54.7792C51.8738 54.7792 52.1962 54.7203 52.5024 54.5916C53.3217 54.2512 53.8563 53.5142 53.9799 52.6995H63.097C63.1266 52.938 63.1884 53.1765 63.2851 53.407C63.731 54.4737 64.7652 55.1115 65.8558 55.1115C66.2104 55.1115 66.5758 55.0419 66.925 54.8971C68.3406 54.3048 69.0095 52.6754 68.4212 51.263C67.9511 50.14 66.8202 49.4888 65.6651 49.5719L64.1178 41.9096C65.0204 41.5478 65.6571 40.666 65.6571 39.6422C65.6571 38.2942 64.5611 37.2007 63.2099 37.2007C61.8587 37.2007 60.7573 38.2942 60.7573 39.6422C60.7573 40.9903 61.8587 42.0891 63.2099 42.0891C63.2797 42.0891 63.3469 42.0865 63.4113 42.0784L64.9506 49.7166C64.8915 49.73 64.8351 49.7514 64.776 49.7782C63.8304 50.1722 63.2179 51.0325 63.097 51.9786H53.9772C53.953 51.7829 53.8966 51.5873 53.8187 51.397C53.5662 50.794 53.0934 50.3249 52.4863 50.0784C51.8846 49.8291 51.2237 49.8318 50.6247 50.0811L46.5362 43.2523C46.3482 43.4104 46.1413 43.5337 45.9184 43.6248L50.0069 50.4482C49.6308 50.7564 49.3595 51.1665 49.2171 51.6221L36.2586 49.3494C36.2666 49.3012 36.2612 49.2529 36.2612 49.2047C36.2397 48.5508 35.9631 47.9451 35.4822 47.5002C35.0041 47.0553 34.3809 46.8221 33.7308 46.8462C33.0753 46.8677 32.4709 47.1437 32.0223 47.6181C31.5764 48.0951 31.3427 48.7169 31.3669 49.3709C31.3884 50.0248 31.665 50.6278 32.1405 51.0727C32.1593 51.0915 32.1754 51.1075 32.1996 51.1236L27.3939 58.5795C27.0581 58.4241 26.6847 58.3517 26.3086 58.3624C25.6532 58.3866 25.0488 58.6626 24.6002 59.1397C24.1542 59.6167 23.9205 60.2385 23.9447 60.8924C23.9447 60.9112 23.9447 60.9326 23.9474 60.9514L5.90374 64.7597C5.77749 64.4462 5.57333 64.1567 5.31813 63.9155C4.94474 63.5698 4.49345 63.3634 4.02067 63.2911L6.57262 50.3357C6.63172 50.3437 6.68813 50.3437 6.74723 50.3437C7.49401 50.3437 8.23542 50.0516 8.78342 49.4647C9.29112 48.9233 9.55706 48.2157 9.53289 47.4734C9.53289 47.4519 9.5302 47.4251 9.52483 47.4037L21.339 45.139C21.6077 45.8948 22.2362 46.4978 23.069 46.6988C23.2651 46.7471 23.4558 46.7712 23.6492 46.7712C24.7533 46.7712 25.7553 46.0208 26.0293 44.9005C26.1851 44.268 26.083 43.6114 25.7445 43.054C25.4034 42.4938 24.8634 42.1025 24.2268 41.9498C24.036 41.9015 23.8426 41.8801 23.6546 41.8801C23.1523 41.8801 22.6687 42.0355 22.2685 42.3089L15.6844 35.2657C15.9047 34.9923 16.0659 34.6707 16.1492 34.3196C16.305 33.6872 16.2029 33.0305 15.859 32.4731C15.757 32.3069 15.6388 32.1542 15.5045 32.0228L21.793 23.5726C22.1342 23.7575 22.529 23.8621 22.94 23.8621C24.2912 23.8621 25.3926 22.7686 25.3926 21.4205C25.3926 20.0725 24.2912 18.9736 22.94 18.9736C21.5889 18.9736 20.4929 20.0725 20.4929 21.4205C20.4929 22.0959 20.7669 22.6989 21.2074 23.1438L14.9215 31.5887C14.7442 31.4922 14.5481 31.4198 14.3467 31.3689C14.156 31.3207 13.9625 31.2992 13.7745 31.2992C12.6704 31.2992 11.6604 32.0496 11.3891 33.1672C11.236 33.8024 11.3381 34.4617 11.6792 35.0165C12.0204 35.5739 12.5603 35.9679 13.1916 36.118C13.3877 36.1662 13.5784 36.1903 13.7745 36.1903C14.2204 36.1903 14.6556 36.067 15.0451 35.8339C15.0854 35.8098 15.1203 35.7856 15.1579 35.7588L21.7339 42.8074C21.5163 43.0754 21.3578 43.397 21.2692 43.7508C21.2155 43.9786 21.194 44.2091 21.2047 44.4288L9.3932 46.6935C9.24815 46.2566 8.99563 45.8627 8.65179 45.541C7.52893 44.4958 5.76674 44.5548 4.7191 45.6751C4.21945 46.2084 3.97232 46.8891 3.97232 47.5672C3.97232 48.3122 4.27049 49.0519 4.85341 49.5987C5.15427 49.8774 5.49812 50.0757 5.86345 50.1936L3.28463 63.2884C2.75544 63.3634 2.24773 63.6127 1.85823 64.0334C1.41231 64.5105 1.1786 65.135 1.20009 65.7862C1.22427 66.4401 1.50095 67.0432 1.97911 67.4907C2.43577 67.9169 3.02675 68.1473 3.64728 68.1473C3.67683 68.1473 3.70638 68.1473 3.73324 68.1447C4.386 68.1232 4.9931 67.8472 5.43902 67.3728C5.88763 66.8957 6.11864 66.2713 6.09715 65.62C6.09715 65.5664 6.09447 65.5128 6.08372 65.4619L24.1005 61.6643C24.2268 62.0154 24.4363 62.3316 24.7184 62.5969C25.175 63.0231 25.766 63.2535 26.3865 63.2535H26.4725C27.1279 63.2321 27.7323 62.9534 28.1783 62.4763C28.6269 61.9993 28.8579 61.3775 28.8364 60.7236C28.8149 60.0723 28.5382 59.4666 28.0574 59.0217C28.0386 59.003 28.0225 58.9869 27.9983 58.9708L32.8067 51.5149C33.1264 51.6596 33.4648 51.732 33.8087 51.732C34.4641 51.732 35.1169 51.472 35.5977 50.9548C35.8449 50.6948 36.0249 50.392 36.1296 50.0623L49.1043 52.3377C49.1043 52.6512 49.1661 52.9729 49.2923 53.2811C49.4938 53.7608 49.8349 54.144 50.2486 54.4013L48.559 60.5467C48.2044 60.4824 47.8337 60.4529 47.4657 60.4636C46.1736 60.5118 44.9782 61.0532 44.0944 61.9966C43.2106 62.94 42.7513 64.1674 42.7942 65.4566C42.8426 66.743 43.3852 67.9383 44.3308 68.82V68.8174C45.2334 69.6589 46.3992 70.1172 47.6295 70.1172C47.6832 70.1172 47.7423 70.1172 47.7988 70.1145C49.0882 70.0716 50.2862 69.5249 51.1673 68.5869C51.9598 67.7373 52.4138 66.6626 52.4675 65.5155L75.9078 64.8401C76.0126 65.4432 76.335 65.9738 76.8239 66.349C77.2698 66.684 77.7909 66.8502 78.3121 66.8502C79.0508 66.8502 79.7788 66.5205 80.2596 65.8934C81.0816 64.8214 80.8748 63.283 79.8029 62.4629ZM63.817 40.4302C63.6504 40.5615 63.4355 40.6392 63.2099 40.6392C63.1803 40.6392 63.1481 40.6392 63.1185 40.6365C62.6108 40.5883 62.2106 40.1622 62.2106 39.6422C62.2106 39.0928 62.6592 38.6453 63.2099 38.6453C63.7606 38.6453 64.2092 39.0928 64.2092 39.6422C64.2065 39.9638 64.056 40.2479 63.817 40.4302ZM64.5691 51.9759C64.6658 51.6328 64.9022 51.33 65.2434 51.1638C65.2729 51.1424 65.3052 51.129 65.3374 51.1129C65.5039 51.0432 65.6785 51.0084 65.8505 51.0084C65.8827 51.0084 65.9203 51.0084 65.9525 51.0164C66.0895 51.0244 66.2239 51.0566 66.3555 51.1102C66.6859 51.2442 66.9411 51.4961 67.0808 51.8258C67.3628 52.5012 67.0459 53.2811 66.3662 53.5625C65.6893 53.8439 64.9076 53.5276 64.6255 52.8496C64.604 52.7986 64.5852 52.7477 64.5718 52.6968C64.4993 52.4556 64.5047 52.2064 64.5691 51.9759ZM22.666 44.1421L22.6768 44.0885C22.6956 44.0188 22.7171 43.9545 22.7493 43.8928C22.8568 43.6623 23.0502 43.4881 23.2812 43.397C23.4666 43.322 23.6734 43.3032 23.8829 43.3541C24.1408 43.4158 24.3611 43.5739 24.4981 43.8017C24.6404 44.0295 24.6781 44.2975 24.6163 44.5575C24.4846 45.0908 23.9474 45.4204 23.4101 45.2918C23.1496 45.2275 22.9347 45.0667 22.8057 44.855H22.803C22.6714 44.6486 22.6177 44.3967 22.666 44.1421ZM22.9374 20.4209C23.488 20.4209 23.9366 20.8684 23.9366 21.4178C23.9366 21.9673 23.488 22.4148 22.9374 22.4148C22.846 22.4148 22.7601 22.4041 22.6768 22.38C22.435 22.3157 22.2255 22.1602 22.0939 21.9512C21.9972 21.7984 21.9381 21.6162 21.9381 21.4205C21.9381 20.8684 22.3867 20.4209 22.9374 20.4209ZM14.7362 33.9766C14.7174 34.0463 14.6959 34.1133 14.6637 34.1749C14.5562 34.4027 14.3628 34.5769 14.1345 34.6654C13.9491 34.7404 13.7396 34.7592 13.5301 34.7083C13.2695 34.6466 13.0519 34.4831 12.9122 34.258C12.7752 34.0329 12.7322 33.7622 12.7967 33.5076C12.9283 32.9743 13.4656 32.6446 14.0028 32.7733C14.0109 32.7759 14.0216 32.7759 14.027 32.7813C14.2688 32.8456 14.4783 32.9984 14.6099 33.2155C14.6126 33.2181 14.618 33.2181 14.618 33.2235C14.7577 33.4513 14.798 33.7166 14.7362 33.9766ZM5.83927 48.5347C5.3047 48.0362 5.27516 47.1946 5.7748 46.6586C6.27445 46.1199 7.11793 46.0958 7.65787 46.5943C7.77338 46.7015 7.8674 46.8302 7.93724 46.9668C8.0232 47.1357 8.07156 47.3233 8.07962 47.5189C8.07962 47.5725 8.07962 47.6235 8.07156 47.6771C8.05007 47.9692 7.9265 48.2506 7.71966 48.4677C7.49132 48.7142 7.18778 48.859 6.85737 48.8831V48.8858C6.83588 48.8858 6.81439 48.8884 6.7929 48.8884C6.56456 48.8965 6.34429 48.8456 6.1455 48.741C6.03537 48.6901 5.93329 48.6231 5.83927 48.5347ZM4.37257 66.3785C4.17647 66.5875 3.90785 66.6974 3.64191 66.6974C3.40014 66.6974 3.15301 66.6063 2.96228 66.4294C2.87901 66.349 2.80916 66.2552 2.76081 66.1561C2.74738 66.1373 2.73932 66.1159 2.72857 66.0944C2.68022 65.9818 2.65336 65.8639 2.64799 65.738C2.63724 65.47 2.73395 65.218 2.91662 65.0224C2.92736 65.0117 2.93542 65.0036 2.94616 64.9983V64.9956C3.13689 64.8053 3.39477 64.7061 3.64728 64.7061C3.67952 64.7061 3.70906 64.7061 3.7413 64.7088C3.95083 64.7303 4.16036 64.816 4.32691 64.9715C4.35914 65.0036 4.39137 65.0358 4.41824 65.068C4.5821 65.2663 4.65731 65.5155 4.63851 65.7621C4.62508 65.9819 4.53912 66.2043 4.37257 66.3785ZM27.1145 61.4874C26.9345 61.683 26.6874 61.7956 26.4188 61.801H26.3677C26.126 61.801 25.8869 61.7072 25.7042 61.533C25.6451 61.4794 25.5968 61.4177 25.5511 61.3534C25.449 61.206 25.3926 61.0291 25.3846 60.8415C25.3819 60.7718 25.3872 60.7075 25.398 60.6432C25.4302 60.4475 25.5162 60.2706 25.6505 60.1259C25.8305 59.9356 26.0803 59.8177 26.3462 59.8124H26.3812C26.4456 59.8124 26.5128 59.8204 26.5773 59.8338C26.7572 59.866 26.9238 59.949 27.0635 60.0804C27.1118 60.1232 27.1494 60.1715 27.1897 60.2224C27.3052 60.3805 27.3697 60.5735 27.3778 60.7745C27.3939 61.0398 27.2999 61.2917 27.1145 61.4874ZM34.6602 49.805C34.628 49.864 34.585 49.9176 34.5367 49.9685C34.2949 50.2285 33.9403 50.3303 33.6126 50.2606C33.4353 50.2285 33.2687 50.1481 33.1264 50.0141C33.078 49.9712 33.0404 49.9229 33.0001 49.872C32.8846 49.7139 32.8148 49.5209 32.8094 49.3199C32.8013 49.0573 32.8953 48.8 33.078 48.6044C33.258 48.4141 33.5078 48.3015 33.7738 48.2908C34.0451 48.2801 34.2949 48.3766 34.491 48.5588C34.6468 48.7035 34.7489 48.8911 34.7892 49.0921C34.7999 49.143 34.808 49.1966 34.808 49.2502C34.8133 49.4486 34.765 49.6415 34.6602 49.805ZM50.6731 51.8767C50.6945 51.8231 50.7322 51.7722 50.7671 51.7239C50.8692 51.5899 51.0062 51.4827 51.17 51.4131C51.2425 51.3836 51.3151 51.3621 51.3876 51.3514C51.4467 51.3407 51.5004 51.338 51.5568 51.338C51.6831 51.338 51.8147 51.3621 51.9329 51.4131C52.1827 51.5095 52.3735 51.7025 52.4755 51.9464C52.4782 51.9544 52.4836 51.9651 52.4863 51.9705C52.5346 52.0884 52.5508 52.209 52.5508 52.327C52.5508 52.4529 52.5266 52.5762 52.4782 52.6914C52.3869 52.9326 52.1962 53.139 51.9383 53.2489C51.7288 53.3347 51.5031 53.3454 51.3016 53.2918C51.0438 53.2275 50.8154 53.0613 50.6838 52.8147C50.665 52.7826 50.6489 52.7504 50.6328 52.7129C50.614 52.6727 50.6005 52.6298 50.5898 52.5896C50.5226 52.3511 50.5575 52.0938 50.6731 51.8767ZM51.0062 65.5504C50.9471 66.3115 50.6381 67.0271 50.1089 67.5926C49.4911 68.2545 48.653 68.6324 47.7477 68.6646C47.7074 68.6646 47.6644 68.6673 47.6242 68.6673C46.7619 68.6673 45.9506 68.343 45.3166 67.7561C44.6585 67.1396 44.2744 66.3035 44.2448 65.4003C44.2126 64.4971 44.5349 63.6368 45.1528 62.9775C45.7679 62.3209 46.6087 61.9376 47.514 61.9082C47.5543 61.9055 47.5946 61.9055 47.6322 61.9055C47.8122 61.9055 47.9949 61.9189 48.1668 61.9484C48.4059 61.9832 48.6422 62.0502 48.8652 62.1386H48.8679C49.2601 62.2914 49.62 62.5219 49.937 62.814C50.5173 63.3474 50.8772 64.0576 50.9847 64.8267C50.9981 64.9393 51.0088 65.0545 51.0142 65.1698C51.0196 65.2984 51.0169 65.4244 51.0062 65.5504ZM79.1072 65.009C78.7714 65.4458 78.1428 65.5289 77.705 65.1966C77.5626 65.0894 77.4578 64.9474 77.3934 64.7919C77.2966 64.5614 77.2859 64.3015 77.3746 64.0656C77.4041 63.9718 77.4551 63.8807 77.5196 63.7976C77.6835 63.5832 77.9145 63.4519 78.1777 63.4144C78.2261 63.4063 78.2691 63.4063 78.3121 63.4063C78.5323 63.4063 78.7419 63.476 78.9165 63.6127C79.357 63.9477 79.4403 64.5748 79.1072 65.009Z" fill="#FFCB46"/>
<path d="M56.2168 37.2005C56.1309 36.5546 55.7978 35.9784 55.2793 35.5817C54.2075 34.7616 52.6656 34.9653 51.8436 36.032C51.7926 36.1017 51.7415 36.1687 51.7012 36.241L40.9051 31.6528C41.1146 31.1141 41.2302 30.5245 41.2302 29.9161C41.2302 29.1496 41.0502 28.4233 40.7305 27.7801L50.0921 22.8595C50.5381 23.4625 51.258 23.8565 52.0666 23.8565C53.4177 23.8565 54.5137 22.763 54.5137 21.4149C54.5137 20.0669 53.4177 18.9681 52.0666 18.9681C51.1586 18.9681 50.3608 19.4665 49.9417 20.2036L45.8801 18.6277C45.9311 18.4186 45.9607 18.1989 45.9607 17.9711C45.9607 16.4434 44.7142 15.1972 43.1804 15.1972C42.2885 15.1972 41.5015 15.6153 40.9911 16.2639L34.3641 12.3671C34.4796 12.0857 34.5413 11.7775 34.5413 11.4532C34.5413 11.2977 34.5279 11.145 34.4984 10.9976L42.0226 8.38182C42.4309 9.15903 43.2502 9.68969 44.1877 9.68969C45.5389 9.68969 46.6403 8.59086 46.6403 7.24279C46.6403 5.89472 45.5389 4.7959 44.1877 4.7959C42.8365 4.7959 41.7405 5.89472 41.7405 7.24279C41.7405 7.39823 41.754 7.551 41.7835 7.69304L34.2566 10.3115C33.851 9.53424 33.0317 9.00359 32.0942 9.00359C30.7403 9.00359 29.6416 10.1024 29.6416 11.4505C29.6416 12.7986 30.7376 13.892 32.0942 13.892C32.8624 13.892 33.5474 13.5383 33.996 12.9888L40.6231 16.8856C40.4807 17.218 40.4028 17.5851 40.4028 17.9684C40.4028 19.5014 41.6492 20.7476 43.1831 20.7476C44.2334 20.7476 45.1494 20.1634 45.6195 19.3031H45.6222L49.6812 20.8736C49.6409 21.0478 49.6194 21.2273 49.6194 21.4123C49.6194 21.6937 49.6677 21.9644 49.7617 22.219L40.3652 27.1583C39.4921 25.9094 38.0416 25.0893 36.4002 25.0893C33.7328 25.0893 31.5623 27.2575 31.5623 29.9188C31.5623 32.5774 33.7301 34.7456 36.4002 34.7456C38.1974 34.7456 39.7688 33.762 40.6016 32.3067L51.4245 36.9084C51.3439 37.2085 51.3278 37.5248 51.3654 37.8437C51.3789 37.9509 51.4004 38.0581 51.4299 38.1573L47.062 40.0601C47.1937 40.2665 47.2904 40.4889 47.3522 40.7221L51.72 38.8219H51.7227C51.8705 39.0631 52.0692 39.2802 52.3056 39.4625C52.7354 39.7921 53.2539 39.9636 53.7911 39.9636C53.8986 39.9636 54.0087 39.961 54.1162 39.9449C54.7636 39.8591 55.3411 39.5268 55.7387 39.0069C56.1309 38.4896 56.3001 37.8464 56.2168 37.2005ZM51.3305 20.7423C51.5105 20.5439 51.7764 20.418 52.0666 20.418C52.6172 20.418 53.0658 20.8655 53.0658 21.4149C53.0658 21.9644 52.6172 22.4119 52.0666 22.4119C51.8167 22.4119 51.5884 22.3208 51.4138 22.1654C51.2284 22.0099 51.1022 21.7821 51.0726 21.5302C51.0699 21.4954 51.0646 21.4551 51.0646 21.4149C51.0646 21.155 51.1667 20.9191 51.3305 20.7423ZM43.1831 7.20527C43.2046 6.67462 43.6424 6.24313 44.1824 6.24313C44.733 6.24313 45.1817 6.6907 45.1817 7.24011C45.1817 7.78952 44.733 8.23709 44.1824 8.23709C43.8788 8.23709 43.6075 8.10041 43.4248 7.88601C43.2717 7.7118 43.1831 7.484 43.1831 7.24011V7.20527ZM33.0854 11.488C33.0827 11.5282 33.0773 11.5711 33.072 11.6059C33.037 11.8579 32.9027 12.0803 32.7093 12.2304C32.5401 12.3671 32.3252 12.4475 32.0915 12.4475C31.5381 12.4475 31.0922 11.9999 31.0922 11.4505C31.0922 10.9011 31.5381 10.4535 32.0915 10.4535C32.3923 10.4535 32.6637 10.5875 32.849 10.7992C32.9967 10.9734 33.0881 11.2012 33.0881 11.4505V11.488H33.0854ZM44.4967 18.097C44.4752 18.349 44.3811 18.5821 44.2388 18.7697C43.997 19.0913 43.6075 19.3004 43.175 19.3004C42.439 19.3004 41.8426 18.7054 41.8426 17.9711C41.8426 17.8558 41.8561 17.7433 41.8856 17.6361C41.9501 17.3949 42.0817 17.1778 42.259 17.0143C42.4981 16.7838 42.8204 16.6471 43.175 16.6471C43.911 16.6471 44.5047 17.2421 44.5047 17.9737C44.5047 18.0139 44.502 18.0542 44.4967 18.097ZM39.5727 31.0873C39.4895 31.3151 39.3766 31.5322 39.2477 31.7332C38.646 32.6712 37.5929 33.293 36.3949 33.293C34.5252 33.293 33.0048 31.7761 33.0048 29.9161C33.0048 28.0508 34.5252 26.5339 36.3949 26.5339C37.4774 26.5339 38.4445 27.0431 39.0623 27.839C39.2155 28.0267 39.3417 28.233 39.4492 28.4528C39.6641 28.8923 39.7823 29.3908 39.7823 29.9161C39.7823 30.3288 39.707 30.7228 39.5727 31.0873ZM54.5809 38.1278C54.417 38.3368 54.1833 38.4735 53.9174 38.5084C53.6541 38.5432 53.3936 38.4762 53.1787 38.3127C53.1437 38.2886 53.1088 38.2591 53.082 38.227C52.9262 38.0715 52.8295 37.8732 52.7999 37.6534C52.7972 37.6213 52.7918 37.5918 52.7918 37.5623C52.7892 37.5382 52.7892 37.5141 52.7918 37.4899C52.7945 37.2809 52.8644 37.0853 52.9933 36.9164C53.0175 36.8843 53.0444 36.8548 53.0739 36.8253C53.2646 36.627 53.5225 36.5251 53.7884 36.5251C54.0033 36.5251 54.2156 36.5948 54.3955 36.7315C54.6051 36.895 54.7421 37.1281 54.7797 37.3935C54.8119 37.6561 54.7448 37.9161 54.5809 38.1278Z" fill="#FFCB46"/>
<path d="M47.3447 40.7258C47.2829 40.4953 47.1862 40.2702 47.0546 40.0638C46.9579 39.9084 46.8397 39.7637 46.7108 39.635C46.2514 39.1714 45.6363 38.9194 44.9808 38.9194C44.3254 38.9194 43.7102 39.1714 43.2455 39.635C42.2919 40.5891 42.2919 42.1382 43.2455 43.0923C43.7102 43.556 44.3254 43.8079 44.9808 43.8079C45.3058 43.8079 45.6255 43.7462 45.9156 43.6229C46.1413 43.5318 46.3454 43.4085 46.5335 43.2504C46.5952 43.1995 46.6517 43.1486 46.7108 43.0923C47.1755 42.6286 47.4307 42.0149 47.4307 41.361C47.4307 41.1466 47.4038 40.9322 47.3447 40.7258ZM45.7652 41.9774C45.741 42.0096 45.7142 42.039 45.6846 42.0685C45.5369 42.2213 45.3435 42.3097 45.142 42.3392C45.0883 42.3499 45.0345 42.3526 44.9781 42.3526C44.7176 42.3526 44.4597 42.2588 44.2716 42.0685C43.8794 41.6826 43.8794 41.0501 44.2716 40.6588C44.4597 40.4712 44.7095 40.3694 44.9781 40.3694C45.2468 40.3694 45.4966 40.4712 45.6846 40.6588L45.6873 40.6615C45.8726 40.8464 45.9667 41.0876 45.9774 41.3261C45.9882 41.5566 45.9183 41.7898 45.7652 41.9774Z" fill="#F8B608"/>
</svg>
