<svg width="60" height="60" viewBox="0 0 60 60" fill="none" xmlns="http://www.w3.org/2000/svg">
<g id="User">
<g id="User_2">
<path d="M29.9998 6.30225C23.6236 6.30225 18.4546 11.4712 18.4546 17.8474C18.4546 24.2236 23.6236 29.3925 29.9998 29.3925C36.376 29.3925 41.5449 24.2236 41.5449 17.8474C41.5449 11.4712 36.376 6.30225 29.9998 6.30225Z" fill="#BFBFBF"/>
<path d="M29.9998 35.4689C24.4696 35.4689 19.3818 36.3064 15.6104 37.7207C13.7314 38.4253 12.0843 39.3083 10.874 40.3812C9.66596 41.4523 8.73242 42.8682 8.73242 44.5835C8.73242 46.2988 9.66596 47.7147 10.874 48.7858C12.0843 49.8587 13.7314 50.7417 15.6104 51.4463C19.3818 52.8606 24.4696 53.6981 29.9998 53.6981C35.5299 53.6981 40.6178 52.8606 44.3891 51.4463C46.2681 50.7417 47.9153 49.8587 49.1255 48.7858C50.3336 47.7147 51.2671 46.2988 51.2671 44.5835C51.2671 42.8682 50.3336 41.4523 49.1255 40.3812C47.9153 39.3083 46.2681 38.4253 44.3891 37.7207C40.6178 36.3064 35.5299 35.4689 29.9998 35.4689Z" fill="#BFBFBF"/>
</g>
</g>
</svg>
