<svg width="82" height="82" viewBox="-20 -20 120 120" fill="none" xmlns="http://www.w3.org/2000/svg">
<g id="User">
<g id="User_2">
<path d="M41.0009 7.82227C32.0742 7.82227 24.8377 15.0588 24.8377 23.9855C24.8377 32.9121 32.0742 40.1487 41.0009 40.1487C49.9276 40.1487 57.1641 32.9121 57.1641 23.9855C57.1641 15.0588 49.9276 7.82227 41.0009 7.82227Z" fill="#BFBFBF"/>
<path d="M41.0009 48.6556C33.2587 48.6556 26.1357 49.8281 20.8558 51.808C18.2252 52.7945 15.9191 54.0307 14.2248 55.5329C12.5335 57.0324 11.2266 59.0146 11.2266 61.416C11.2266 63.8174 12.5335 65.7997 14.2248 67.2992C15.9191 68.8013 18.2252 70.0375 20.8558 71.024C26.1357 73.004 33.2587 74.1764 41.0009 74.1764C48.7431 74.1764 55.866 73.004 61.146 71.024C63.7765 70.0375 66.0826 68.8013 67.7769 67.2992C69.4682 65.7997 70.7752 63.8174 70.7752 61.416C70.7752 59.0146 69.4682 57.0324 67.7769 55.5329C66.0826 54.0307 63.7765 52.7945 61.146 51.808C55.866 49.8281 48.7431 48.6556 41.0009 48.6556Z" fill="#BFBFBF"/>
</g>
</g>
</svg>
