<svg width="20" height="20" viewBox="0 0 20 20" fill="none" xmlns="http://www.w3.org/2000/svg">
<g id="Icons 20px" clip-path="url(#clip0_511_10386)">
<path id="XMLID 497" d="M0.353259 9.61978L4.96167 11.4542L6.7454 17.5721C6.85954 17.964 7.3088 18.1088 7.607 17.8488L10.1758 15.6154C10.4451 15.3814 10.8286 15.3697 11.11 15.5876L15.7432 19.1751C16.0622 19.4224 16.5141 19.236 16.5941 18.8249L19.9882 1.41301C20.0756 0.963941 19.6618 0.589313 19.2609 0.754693L0.347859 8.53599C-0.118874 8.72796 -0.114808 9.43271 0.353259 9.61978ZM6.45793 10.4777L15.4645 4.56162C15.6263 4.45561 15.7929 4.68903 15.6539 4.82654L8.22087 12.1954C7.9596 12.4548 7.79107 12.8019 7.74334 13.1786L7.49014 15.1798C7.4566 15.447 7.10467 15.4735 7.03554 15.215L6.06173 11.5657C5.9502 11.1495 6.11273 10.7049 6.45793 10.4777Z" fill="#595959"/>
</g>
<defs>
<clipPath id="clip0_511_10386">
<rect width="20" height="20" fill="white"/>
</clipPath>
</defs>
</svg>
