<svg width="20" height="20" viewBox="0 0 20 20" fill="none" xmlns="http://www.w3.org/2000/svg">
<g id="Icons 20px">
<path id="Union" fill-rule="evenodd" clip-rule="evenodd" d="M16.9852 1.85323C16.5131 1.41756 14.6051 0.0324556 10.3551 0.0136378C10.3551 0.0136378 5.34325 -0.288588 2.90007 1.95245C1.54005 3.31275 1.06162 5.30317 1.01115 7.77087C0.960688 10.2386 0.895396 14.8632 5.35323 16.1172H5.35751L5.35466 18.0306C5.35466 18.0306 5.32615 18.8053 5.83623 18.9632C6.35115 19.1231 6.68854 18.7395 7.12848 18.2393C7.21569 18.1401 7.30693 18.0364 7.40438 17.9314C7.72771 17.583 8.1742 17.0712 8.51064 16.68C11.5594 16.9366 13.9042 16.3501 14.1705 16.2634C14.2255 16.2456 14.3032 16.2259 14.3996 16.2013L14.3998 16.2013L14.3999 16.2013L14.3999 16.2013C15.3849 15.9508 18.32 15.2045 18.8359 10.9933C19.4207 6.22695 18.5531 3.2121 16.9852 1.85323ZM17.5019 10.6514C17.0713 14.128 14.7379 14.6709 13.8972 14.8666C13.8042 14.8882 13.7294 14.9056 13.6776 14.9222C13.456 14.9935 11.3966 15.5059 8.80688 15.3368C8.80688 15.3368 6.8772 17.6648 6.27445 18.2701C6.18036 18.3648 6.06974 18.403 5.99589 18.3841C5.89211 18.3588 5.8636 18.2359 5.86474 18.0563C5.86645 17.7997 5.88127 14.8766 5.88127 14.8766C2.2349 13.8643 2.31994 10.1506 2.36821 8.04276C2.36986 7.97073 2.37147 7.90057 2.37288 7.83246C2.41565 5.77133 2.80284 4.08286 3.95301 2.94723C6.01956 1.07542 10.2767 1.35512 10.2767 1.35512C13.8717 1.3708 15.5944 2.4534 15.9939 2.81607C17.3203 3.9517 17.996 6.66917 17.5019 10.6503V10.6514ZM10.4282 6.16538C10.4351 6.03282 10.5481 5.93096 10.6807 5.93788C11.1767 5.96375 11.5893 6.11388 11.8832 6.41775C12.176 6.72045 12.3195 7.14332 12.3447 7.65118C12.3512 7.78376 12.2491 7.89658 12.1165 7.90315C11.9839 7.90973 11.8711 7.80758 11.8646 7.675C11.843 7.24026 11.7237 6.9443 11.5377 6.75194C11.3527 6.56074 11.0705 6.43958 10.6557 6.41794C10.5231 6.41102 10.4212 6.29795 10.4282 6.16538ZM10.321 4.64832C10.1886 4.63863 10.0734 4.7381 10.0637 4.87049C10.054 5.00288 10.1535 5.11806 10.2859 5.12775C11.2011 5.19473 11.8883 5.50103 12.38 6.03767C12.8732 6.57655 13.1152 7.24828 13.0974 8.07132C13.0945 8.20403 13.1998 8.31395 13.3325 8.31682C13.4652 8.31969 13.5751 8.21444 13.578 8.08172C13.5982 7.14844 13.32 6.35275 12.7346 5.71313L12.7345 5.71304C12.1428 5.06707 11.3303 4.72219 10.321 4.64832ZM9.63948 3.63948C9.64041 3.50674 9.74877 3.39988 9.88151 3.4008C11.2764 3.41052 12.4554 3.87488 13.402 4.7977C14.3566 5.72823 14.8286 6.99507 14.8406 8.56846C14.8416 8.7012 14.7348 8.80963 14.6021 8.81064C14.4694 8.81165 14.3609 8.70486 14.3599 8.57212C14.3487 7.09778 13.9101 5.96429 13.0665 5.14191C12.215 4.31182 11.1577 3.89041 9.87816 3.8815C9.74542 3.88058 9.63856 3.77222 9.63948 3.63948ZM11.2355 10.6868C11.0536 10.9109 10.7158 10.8823 10.7158 10.8823C8.24633 10.2519 7.58543 7.7506 7.58543 7.7506C7.58543 7.7506 7.55578 7.41273 7.78102 7.23083L8.22723 6.87614C8.44849 6.70564 8.58962 6.29193 8.36437 5.88791C8.19161 5.58465 8.00377 5.29023 7.80155 5.00576C7.6051 4.73746 7.14749 4.18803 7.14578 4.18632C6.92509 3.92601 6.60063 3.86556 6.25848 4.04376C6.25745 4.04376 6.25603 4.04422 6.25466 4.04467C6.2534 4.04508 6.25218 4.04547 6.25136 4.04547C5.91106 4.24154 5.60422 4.49063 5.3424 4.78336C5.3415 4.78515 5.34061 4.786 5.33972 4.78686C5.3389 4.78764 5.33808 4.78842 5.33727 4.78992C5.1259 5.04501 5.00491 5.29506 4.97431 5.54007C4.96796 5.57619 4.96575 5.61293 4.96775 5.64955C4.96661 5.75775 4.98308 5.86541 5.01651 5.96832L5.0282 5.9763C5.13483 6.35494 5.4017 6.98562 5.98163 8.03714C6.31334 8.64534 6.69591 9.22439 7.12525 9.7681C7.34035 10.0406 7.57091 10.3006 7.81581 10.5468C7.81876 10.5497 7.82168 10.5527 7.82459 10.5556C7.83039 10.5615 7.83615 10.5673 7.84204 10.573L7.86827 10.5992L7.8945 10.6255L7.92073 10.6517C8.16686 10.8966 8.42684 11.1271 8.69939 11.3422C9.24315 11.7716 9.8223 12.1542 10.4306 12.4859C11.4819 13.0658 12.1131 13.3327 12.4912 13.4393L12.4992 13.451C12.6021 13.4845 12.7097 13.5011 12.8179 13.5C12.8546 13.5018 12.8913 13.4995 12.9274 13.4932C13.1728 13.4641 13.4227 13.3433 13.677 13.1308C13.6785 13.13 13.6793 13.1292 13.6801 13.1283C13.6809 13.1274 13.6818 13.1266 13.6836 13.1257C13.9763 12.8638 14.2255 12.5569 14.4217 12.2167C14.4217 12.2159 14.4221 12.2147 14.4224 12.2134C14.4228 12.212 14.4232 12.2106 14.4232 12.2096C14.6014 11.8674 14.5409 11.543 14.2792 11.322C14.2788 11.322 14.2575 11.3044 14.2213 11.2746C14.073 11.1524 13.6755 10.8249 13.4597 10.6662C13.1755 10.464 12.8814 10.2762 12.5784 10.1034C12.1741 9.87816 11.7613 10.0193 11.5902 10.2405L11.2355 10.6868Z" fill="#595959"/>
</g>
</svg>
