<svg width="20" height="20" viewBox="0 0 20 20" fill="none" xmlns="http://www.w3.org/2000/svg">
<g id="Icons 20px">
<path id="Vector" d="M10.2001 1C5.12726 1 1.00006 5.1272 1.00006 10.2C1.00006 11.784 1.40926 13.3416 2.18526 14.716L1.01486 18.892C0.976459 19.0292 1.01366 19.1764 1.11286 19.2784C1.18926 19.3572 1.29326 19.4 1.40006 19.4C1.43206 19.4 1.46446 19.396 1.49606 19.3884L5.85446 18.3088C7.18526 19.0232 8.68406 19.4 10.2001 19.4C15.2729 19.4 19.4001 15.2728 19.4001 10.2C19.4001 5.1272 15.2729 1 10.2001 1ZM14.8281 13.4464C14.6313 13.9912 13.6873 14.4884 13.2337 14.5552C12.8265 14.6148 12.3113 14.6404 11.7457 14.4628C11.4029 14.3548 10.9629 14.2116 10.3993 13.9712C8.03006 12.9608 6.48286 10.6052 6.36446 10.4496C6.24646 10.294 5.40006 9.1852 5.40006 8.0376C5.40006 6.89 6.01006 6.3256 6.22686 6.092C6.44366 5.8584 6.69926 5.8 6.85686 5.8C7.01446 5.8 7.17166 5.802 7.30966 5.8084C7.45486 5.8156 7.64966 5.7536 7.84126 6.2088C8.03806 6.676 8.51046 7.8236 8.56886 7.9408C8.62806 8.0576 8.66726 8.194 8.58886 8.3496C8.51046 8.5052 8.47126 8.6024 8.35286 8.7388C8.23446 8.8752 8.10486 9.0428 7.99846 9.1476C7.88006 9.264 7.75726 9.39 7.89486 9.6236C8.03246 9.8572 8.50646 10.6208 9.20886 11.2392C10.1109 12.0336 10.8721 12.28 11.1081 12.3968C11.3441 12.5136 11.4821 12.494 11.6197 12.3384C11.7573 12.1824 12.2101 11.6572 12.3673 11.424C12.5245 11.1908 12.6821 11.2292 12.8989 11.3072C13.1157 11.3848 14.2769 11.9488 14.5129 12.0656C14.7489 12.1824 14.9065 12.2408 14.9657 12.338C15.0249 12.4348 15.0249 12.902 14.8281 13.4464Z" fill="#595959"/>
</g>
</svg>
