<svg width="20" height="20" viewBox="0 0 20 20" fill="none" xmlns="http://www.w3.org/2000/svg">
<g id="Icons 20px">
<path id="World" d="M17.5 10C17.5 14.1421 14.1421 17.5 10 17.5M17.5 10C17.5 5.85786 14.1421 2.5 10 2.5M17.5 10C17.5 10 12.9289 10 10 10C7.07107 10 2.5 10 2.5 10M10 17.5C5.85786 17.5 2.5 14.1421 2.5 10M10 17.5C7.6209 15.3522 6.66667 13.2052 6.66667 10C6.66667 6.79482 7.6209 4.6478 10 2.5M10 17.5C12.3791 15.3522 13.3333 13.2052 13.3333 10C13.3333 6.79482 12.3791 4.6478 10 2.5M2.5 10C2.5 5.85786 5.85786 2.5 10 2.5" stroke="#595959" stroke-width="1.5" stroke-linecap="round" stroke-linejoin="round"/>
</g>
</svg>
